<svg width="20" height="20" viewBox="0 0 20 20" fill="none" xmlns="http://www.w3.org/2000/svg">
<path d="M9.99581 0C5.57652 0 1.97903 3.59748 1.97903 8.01677C1.97903 8.51992 2.02516 9.02725 2.12159 9.52201C2.12578 9.55136 2.14256 9.63941 2.1761 9.79036C2.29769 10.3312 2.47799 10.8637 2.71279 11.3711C3.57652 13.4046 5.47589 16.5283 9.6436 19.8742C9.74843 19.9581 9.87421 20 10 20C10.1258 20 10.2516 19.9581 10.3564 19.8742C14.5199 16.5283 16.4235 13.4046 17.2872 11.3711C17.522 10.8637 17.7023 10.3354 17.8239 9.79036C17.8574 9.63941 17.8742 9.55136 17.8784 9.52201C17.9706 9.02725 18.021 8.51992 18.021 8.01677C18.0126 3.59748 14.4151 0 9.99581 0ZM16.7547 9.32495C16.7547 9.33333 16.7505 9.34172 16.7505 9.3501C16.7463 9.37107 16.7338 9.43396 16.7128 9.5304C16.7128 9.53459 16.7128 9.53459 16.7128 9.53878C16.608 10.0084 16.4528 10.4654 16.2474 10.9057C16.2432 10.9099 16.2432 10.9182 16.239 10.9224C15.4549 12.7799 13.7358 15.6143 9.99581 18.7044C6.25576 15.6143 4.53669 12.7799 3.75262 10.9224C3.74843 10.9182 3.74843 10.9099 3.74423 10.9057C3.54298 10.4696 3.38784 10.0084 3.27882 9.53878C3.27882 9.53459 3.27882 9.53459 3.27882 9.5304C3.25367 9.43396 3.24528 9.37107 3.24109 9.3501C3.24109 9.34172 3.2369 9.33333 3.2369 9.32075C3.15304 8.88889 3.11111 8.45283 3.11111 8.01258C3.11111 4.21803 6.20126 1.12788 9.99581 1.12788C13.7904 1.12788 16.8805 4.21803 16.8805 8.01258C16.8805 8.45702 16.8386 8.89727 16.7547 9.32495Z" fill="black"/>
<path d="M9.99582 3.01468C7.19079 3.01468 4.90567 5.29979 4.90567 8.10483C4.90567 10.9099 7.19079 13.195 9.99582 13.195C12.8008 13.195 15.086 10.9099 15.086 8.10483C15.086 5.29979 12.8008 3.01468 9.99582 3.01468ZM9.99582 12.0629C7.81133 12.0629 6.03775 10.2851 6.03775 8.10483C6.03775 5.92453 7.81552 4.14675 9.99582 4.14675C12.1761 4.14675 13.9539 5.92453 13.9539 8.10483C13.9539 10.2851 12.1803 12.0629 9.99582 12.0629Z" fill="black"/>
</svg>
