<svg width="28" height="30" viewBox="0 0 28 30" fill="none" xmlns="http://www.w3.org/2000/svg">
<path d="M12.2003 15.2058C16.4246 15.2055 17.9446 10.9758 18.3425 7.50142C18.8326 3.22132 16.8086 0 12.2003 0C7.59252 0 5.56747 3.22108 6.05801 7.50142C6.45629 10.9758 7.9758 15.2061 12.2003 15.2058Z" fill="#333333"/>
<path d="M21.4374 16.9664C21.5734 16.9664 21.7084 16.9705 21.8425 16.978C21.6415 16.6912 21.4088 16.4383 21.1365 16.2349C20.3248 15.6291 19.2735 15.4303 18.3442 15.0651C17.8918 14.8874 17.4867 14.7109 17.1064 14.5099C15.8228 15.9175 14.1491 16.6538 12.1999 16.654C10.2515 16.654 8.57784 15.9177 7.29445 14.5099C6.91416 14.7109 6.50896 14.8874 6.05666 15.0651C5.1273 15.4304 4.07607 15.6291 3.26431 16.2349C1.86048 17.2827 1.49769 19.6398 1.21264 21.2477C0.977395 22.5749 0.819356 23.9294 0.773228 25.2775C0.737493 26.3218 1.25308 26.4682 2.12671 26.7834C3.22058 27.178 4.35004 27.4708 5.4871 27.7109C7.68303 28.1747 9.94656 28.531 12.2003 28.5469C13.2924 28.5391 14.3867 28.451 15.4745 28.31C14.669 27.143 14.1966 25.7294 14.1966 24.2073C14.1967 20.2146 17.4448 16.9664 21.4374 16.9664Z" fill="#333333"/>
<path d="M21.4372 18.4146C18.2381 18.4146 15.6445 21.0082 15.6445 24.2073C15.6445 27.4064 18.2381 30 21.4372 30C24.6364 30 27.23 27.4064 27.23 24.2073C27.2299 21.0081 24.6363 18.4146 21.4372 18.4146ZM23.9715 25.2011H22.4311V26.7415C22.4311 27.2904 21.9861 27.7354 21.4373 27.7354C20.8884 27.7354 20.4434 27.2904 20.4434 26.7415V25.2011H18.903C18.354 25.2011 17.909 24.7562 17.909 24.2072C17.909 23.6583 18.354 23.2133 18.903 23.2133H20.4434V21.6729C20.4434 21.124 20.8884 20.679 21.4373 20.679C21.9862 20.679 22.4311 21.124 22.4311 21.6729V23.2133H23.9715C24.5205 23.2133 24.9655 23.6583 24.9655 24.2072C24.9654 24.7562 24.5205 25.2011 23.9715 25.2011Z" fill="#333333"/>
</svg>
