<svg width="20" height="20" viewBox="0 0 20 20" fill="none" xmlns="http://www.w3.org/2000/svg">
<path d="M9.93701 10.2405C9.95501 10.2405 9.973 10.2405 9.9946 10.2405C10.0018 10.2405 10.009 10.2405 10.0162 10.2405C10.027 10.2405 10.0414 10.2405 10.0522 10.2405C11.1067 10.2225 11.9596 9.85153 12.5894 9.14205C13.975 7.57903 13.7446 4.89957 13.7194 4.64387C13.6295 2.7243 12.7225 1.80594 11.974 1.37737C11.4162 1.05684 10.7648 0.883974 10.0378 0.869568H10.0126C10.009 0.869568 10.0018 0.869568 9.99819 0.869568H9.9766C9.57712 0.869568 8.79257 0.934394 8.0404 1.36296C7.28464 1.79153 6.36332 2.7099 6.27335 4.64387C6.24816 4.89957 6.01783 7.57903 7.4034 9.14205C8.0296 9.85153 8.88254 10.2225 9.93701 10.2405ZM7.23425 4.7339C7.23425 4.7231 7.23785 4.71229 7.23785 4.70509C7.35661 2.12287 9.18845 1.84556 9.973 1.84556H9.9874C9.9946 1.84556 10.0054 1.84556 10.0162 1.84556C10.9879 1.86716 12.6398 2.26332 12.7513 4.70509C12.7513 4.7159 12.7513 4.7267 12.7549 4.7339C12.7585 4.75911 13.0105 7.20808 11.866 8.4974C11.4126 9.0088 10.8079 9.2609 10.0126 9.2681C10.0054 9.2681 10.0018 9.2681 9.9946 9.2681C9.9874 9.2681 9.9838 9.2681 9.9766 9.2681C9.18485 9.2609 8.57663 9.0088 8.12677 8.4974C6.98593 7.21529 7.23065 4.75551 7.23425 4.7339Z" fill="white" stroke="white" stroke-width="0.5"/>
<path d="M17.3903 15.5542C17.3903 15.5506 17.3903 15.547 17.3903 15.5434C17.3903 15.5146 17.3867 15.4858 17.3867 15.4533C17.3651 14.7403 17.3183 13.0728 15.7564 12.5398C15.7456 12.5362 15.7312 12.5326 15.7204 12.529C14.0973 12.1148 12.7477 11.1784 12.7333 11.1676C12.5138 11.0128 12.2115 11.0668 12.0568 11.2865C11.902 11.5062 11.956 11.8087 12.1755 11.9636C12.2367 12.0068 13.6691 13.0044 15.4613 13.4654C16.2998 13.7643 16.3934 14.661 16.4186 15.4822C16.4186 15.5146 16.4186 15.5434 16.4222 15.5722C16.4258 15.8963 16.4042 16.3969 16.3466 16.685C15.7636 17.0164 13.4783 18.1616 10.0018 18.1616C6.53967 18.1616 4.23998 17.0128 3.65336 16.6814C3.59578 16.3933 3.57059 15.8927 3.57778 15.5686C3.57778 15.5398 3.58138 15.511 3.58138 15.4786C3.60657 14.6574 3.70015 13.7607 4.53869 13.4618C6.33093 13.0008 7.76329 11.9996 7.82447 11.96C8.044 11.8051 8.09798 11.5026 7.94323 11.2829C7.78848 11.0632 7.48617 11.0092 7.26664 11.164C7.25224 11.1748 5.90986 12.1112 4.27957 12.5254C4.26517 12.529 4.25437 12.5326 4.24358 12.5362C2.68166 13.0728 2.63488 14.7403 2.61328 15.4497C2.61328 15.4822 2.61328 15.511 2.60968 15.5398C2.60968 15.5434 2.60968 15.547 2.60968 15.5506C2.60608 15.7379 2.60249 16.6994 2.79323 17.182C2.82922 17.2757 2.894 17.3549 2.98037 17.4089C3.08833 17.481 5.67593 19.1304 10.0054 19.1304C14.3349 19.1304 16.9224 17.4774 17.0304 17.4089C17.1132 17.3549 17.1816 17.2757 17.2176 17.182C17.3975 16.703 17.3939 15.7415 17.3903 15.5542Z" fill="white" stroke="white" stroke-width="0.5"/>
</svg>
