<svg width="20" height="20" viewBox="0 0 20 20" fill="none" xmlns="http://www.w3.org/2000/svg">
<path d="M16.8709 15.5946L15.9291 13.9466V9.87657C15.9291 7.36061 14.1167 5.23204 11.6452 4.56555V2.53394C11.6453 1.68811 10.9072 1 10 1C9.09278 1 8.35474 1.68811 8.35474 2.53394V4.56558C5.88336 5.23211 4.07093 7.36064 4.07093 9.8766V13.9466L3.12912 15.5946C2.94774 15.912 2.95799 16.2855 3.15649 16.5939C3.35503 16.9022 3.7038 17.0862 4.08952 17.0862H7.82863C7.89232 18.1515 8.84171 19 10 19C11.1583 19 12.1077 18.1515 12.1714 17.0862H15.9105C16.2962 17.0862 16.645 16.9022 16.8436 16.5939C17.042 16.2855 17.0522 15.912 16.8709 15.5946ZM9.22529 2.53394C9.22529 2.13562 9.57281 1.81162 9.99997 1.81162C10.4271 1.81162 10.7747 2.13562 10.7747 2.53394V4.39609C10.521 4.36509 10.2625 4.34891 9.99997 4.34891C9.73741 4.34891 9.47888 4.36512 9.22529 4.39609V2.53394ZM4.94151 9.87657C4.94151 7.27613 7.21074 5.16046 10 5.16046C12.7893 5.16046 15.0585 7.27613 15.0585 9.87657V13.6108H4.94151V9.87657ZM10 18.1884C9.32197 18.1884 8.76336 17.7035 8.70151 17.0862H11.2986C11.2367 17.7035 10.678 18.1884 10 18.1884ZM16.0971 16.1761C16.078 16.2057 16.0217 16.2746 15.9105 16.2746H4.08952C3.97835 16.2746 3.92198 16.2057 3.90293 16.1761C3.88385 16.1465 3.84517 16.0678 3.89747 15.9762L4.78547 14.4224H15.2146L16.1026 15.9762C16.1549 16.0678 16.1161 16.1465 16.0971 16.1761Z" fill="white" stroke="white" stroke-width="0.5"/>
<path d="M9.41731 6.41724C7.46325 6.41724 6 8.11944 6 10.1437C6 10.37 6.17716 10.5536 6.3957 10.5536C6.61424 10.5536 6.7914 10.37 6.7914 10.1437C6.7914 8.5715 7.89961 7.23705 9.41731 7.23705C9.63585 7.23705 9.81301 7.05349 9.81301 6.82714C9.81301 6.60072 9.63585 6.41724 9.41731 6.41724Z" fill="white"/>
</svg>
