<svg width="20" height="20" viewBox="0 0 20 20" fill="none" xmlns="http://www.w3.org/2000/svg">
<path d="M4.95193 1.02692C3.43201 1.02692 2.19543 2.26334 2.19543 3.78326C2.19543 5.30319 3.43201 6.53961 4.95193 6.53961C6.47171 6.53961 7.70828 5.30319 7.70828 3.78326C7.70828 2.26334 6.47171 1.02692 4.95193 1.02692ZM4.95193 5.94559C3.75961 5.94559 2.78961 4.97559 2.78961 3.78326C2.78961 2.59094 3.75961 1.62094 4.95193 1.62094C6.14426 1.62094 7.11426 2.59094 7.11426 3.78326C7.11426 4.97559 6.14426 5.94559 4.95193 5.94559Z" fill="#52C6FE"/>
<path d="M4.95197 7.56653C7.03799 7.56653 8.73523 5.86929 8.73523 3.78326C8.73523 2.9361 8.46149 2.13516 7.9436 1.46713C7.84305 1.33759 7.65643 1.31393 7.52689 1.41449C7.39719 1.51489 7.37354 1.70151 7.47409 1.83105C7.91049 2.39395 8.1412 3.069 8.1412 3.78326C8.1412 5.54184 6.71054 6.9725 4.95197 6.9725C3.19339 6.9725 1.76273 5.54184 1.76273 3.78326C1.76273 2.02469 3.19339 0.594025 4.95197 0.594025C5.64273 0.594025 6.29993 0.811157 6.85245 1.22192C6.98413 1.31989 7.17014 1.29242 7.2681 1.16089C7.36591 1.02921 7.33859 0.843201 7.20691 0.745239C6.55109 0.257721 5.77136 0 4.95197 0C2.86578 0 1.1687 1.69724 1.1687 3.78326C1.1687 5.86929 2.86578 7.56653 4.95197 7.56653Z" fill="#52C6FE"/>
<path d="M5.21103 3.49854V2.76688C5.3331 2.7861 5.41504 2.82776 5.48141 2.86133C5.53833 2.89017 5.5835 2.91306 5.634 2.91306C5.79514 2.91306 5.86502 2.71591 5.86502 2.6152C5.86502 2.40067 5.52902 2.30118 5.21103 2.27936V2.23511C5.21103 2.12265 5.11963 2.03125 5.00717 2.03125C4.89471 2.03125 4.80331 2.12265 4.80331 2.23511V2.29218C4.31732 2.3735 4.039 2.67029 4.039 3.10745C4.039 3.64487 4.47861 3.81378 4.80331 3.93585V4.75708C4.62433 4.72305 4.50775 4.63257 4.41376 4.55963C4.33716 4.50012 4.27673 4.45328 4.20731 4.45328C4.06845 4.45328 3.96393 4.63638 3.96393 4.7551C3.96393 4.9794 4.30817 5.24826 4.80331 5.27924V5.29953C4.80331 5.3624 4.83231 5.42084 4.8822 5.45944C4.91165 5.48737 4.95468 5.50339 4.99985 5.50339H5.00717C5.11963 5.50339 5.21103 5.41183 5.21103 5.29953V5.25635C5.67459 5.15732 5.94009 4.83658 5.94009 4.37546C5.93994 3.85361 5.59052 3.64502 5.21103 3.49854ZM5.41122 4.42978C5.41122 4.57016 5.3421 4.67361 5.21103 4.72992V4.10904C5.34927 4.19083 5.41122 4.29047 5.41122 4.42978ZM4.80331 2.79114V3.3432C4.67911 3.28629 4.56757 3.21014 4.56757 3.05328C4.56757 2.9274 4.64905 2.83691 4.80331 2.79114Z" fill="#52C6FE"/>
<path d="M18.8911 16.8439V9.09412C18.8911 8.01639 18.0142 7.13947 16.9365 7.13947H15.4852V5.76785H16.9843C17.7081 5.76785 18.297 5.17886 18.297 4.45499V2.2092C18.297 1.48532 17.7081 0.896484 16.9843 0.896484H12.204C11.4801 0.896484 10.8913 1.48547 10.8913 2.2092V4.45499C10.8913 5.17886 11.4801 5.76785 12.204 5.76785H13.703V7.13947H9.43985C8.36212 7.13947 7.4852 8.01639 7.4852 9.09412V9.95135H3.84567C3.68164 9.95135 3.54858 10.0844 3.54858 10.2484C3.54858 10.4125 3.68164 10.5455 3.84567 10.5455H7.78229C7.94632 10.5455 8.07938 10.4125 8.07938 10.2484V9.09412C8.07938 8.34384 8.68973 7.73364 9.43985 7.73364H16.9365C17.6868 7.73364 18.2971 8.34384 18.2971 9.09412V16.8424H1.70288V11.3651C1.70288 10.9131 2.07062 10.5455 2.52258 10.5455H2.85538C3.01941 10.5455 3.15247 10.4125 3.15247 10.2484C3.15247 10.0844 3.01941 9.95135 2.85538 9.95135H2.52258C1.74301 9.95135 1.10886 10.5855 1.10886 11.3651V16.8438C0.492401 16.8738 0 17.3847 0 18.0085V18.834C0 19.477 0.523071 20 1.16608 20H16.7955C16.9595 20 17.0924 19.867 17.0924 19.7029C17.0924 19.5389 16.9595 19.406 16.7955 19.406H1.16608C0.850678 19.406 0.594025 19.1494 0.594025 18.834V18.0085C0.594025 17.6931 0.850678 17.4364 1.16608 17.4364H18.8339C19.1493 17.4364 19.406 17.6931 19.406 18.0085V18.834C19.406 19.1494 19.1493 19.406 18.8339 19.406H17.7856C17.6216 19.406 17.4886 19.5389 17.4886 19.7029C17.4886 19.867 17.6216 20 17.7856 20H18.8339C19.4769 20 20 19.477 20 18.834V18.0085C20 17.3847 19.5076 16.8738 18.8911 16.8439ZM11.4853 4.45499V2.2092C11.4853 1.81293 11.8077 1.49051 12.204 1.49051H16.9843C17.3805 1.49051 17.7029 1.81293 17.7029 2.2092V4.45499C17.7029 4.85126 17.3805 5.17368 16.9843 5.17368H12.204C11.8077 5.17368 11.4853 4.85126 11.4853 4.45499ZM14.2972 7.13947V5.76785H14.8912V7.13947H14.2972Z" fill="#52C6FE"/>
<path d="M17.901 9.33746C17.901 8.67142 17.3592 8.12958 16.6931 8.12958H9.68323C9.01718 8.12958 8.47534 8.67142 8.47534 9.33746C8.47534 10.0035 9.01718 10.5455 9.68323 10.5455H16.6931C17.3592 10.5455 17.901 10.0035 17.901 9.33746ZM16.6931 9.95132H9.68323C9.34479 9.95132 9.06937 9.67606 9.06937 9.33746C9.06937 8.99902 9.34479 8.7236 9.68323 8.7236H16.6931C17.0316 8.7236 17.307 8.99902 17.307 9.33746C17.307 9.67606 17.0316 9.95132 16.6931 9.95132Z" fill="#52C6FE"/>
<path d="M2.99014 16.0106H6.79218C6.95621 16.0106 7.08926 15.8777 7.08926 15.7137V12.2087H7.26749C7.43152 12.2087 7.56442 12.0757 7.56442 11.9116C7.56442 11.7476 7.43152 11.6147 7.26749 11.6147H2.51498C2.35095 11.6147 2.2179 11.7476 2.2179 11.9116C2.2179 12.0757 2.35095 12.2087 2.51498 12.2087H2.69321V15.7137C2.69321 15.8777 2.82611 16.0106 2.99014 16.0106ZM6.49509 12.2087V15.4166H3.28723V12.2087H6.49509Z" fill="#52C6FE"/>
<path d="M4.17831 13.62H5.6041C5.76813 13.62 5.90103 13.4869 5.90103 13.3229C5.90103 13.1589 5.76813 13.0258 5.6041 13.0258H4.17831C4.01428 13.0258 3.88123 13.1589 3.88123 13.3229C3.88123 13.4869 4.01428 13.62 4.17831 13.62Z" fill="#52C6FE"/>
<path d="M4.17831 14.5994H5.6041C5.76813 14.5994 5.90103 14.4664 5.90103 14.3023C5.90103 14.1383 5.76813 14.0052 5.6041 14.0052H4.17831C4.01428 14.0052 3.88123 14.1383 3.88123 14.3023C3.88123 14.4664 4.01428 14.5994 4.17831 14.5994Z" fill="#52C6FE"/>
<path d="M12.7724 3.13931H16.6536C16.8176 3.13931 16.9507 3.00641 16.9507 2.84238C16.9507 2.67834 16.8176 2.54529 16.6536 2.54529H12.7724C12.6082 2.54529 12.4753 2.67834 12.4753 2.84238C12.4753 3.00641 12.6082 3.13931 12.7724 3.13931Z" fill="#52C6FE"/>
<path d="M14.4951 3.82187C14.4951 3.65784 14.3622 3.52478 14.198 3.52478H12.7724C12.6082 3.52478 12.4753 3.65784 12.4753 3.82187C12.4753 3.9859 12.6082 4.1188 12.7724 4.1188H14.198C14.3622 4.1188 14.4951 3.9859 14.4951 3.82187Z" fill="#52C6FE"/>
<path d="M4.65485 8.18893V9.32892C4.65485 9.4931 4.7879 9.62601 4.95193 9.62601C5.11597 9.62601 5.24887 9.4931 5.24887 9.32892V8.18893C5.24887 8.0249 5.11597 7.89185 4.95193 7.89185C4.7879 7.89185 4.65485 8.0249 4.65485 8.18893Z" fill="#52C6FE"/>
<path d="M9.44565 13.5551H10.4358C10.9708 13.5551 11.4061 13.12 11.4061 12.5848C11.4061 12.0499 10.9708 11.6147 10.4358 11.6147H9.44565C8.91068 11.6147 8.47534 12.0499 8.47534 12.5848C8.47534 13.12 8.91068 13.5551 9.44565 13.5551ZM9.44565 12.2087H10.4358C10.6432 12.2087 10.8121 12.3775 10.8121 12.5848C10.8121 12.7924 10.6432 12.9611 10.4358 12.9611H9.44565C9.23828 12.9611 9.06937 12.7924 9.06937 12.5848C9.06937 12.3775 9.23828 12.2087 9.44565 12.2087Z" fill="#52C6FE"/>
<path d="M13.4852 11.6147H12.4951C11.9601 11.6147 11.5248 12.0499 11.5248 12.5848C11.5248 13.12 11.9601 13.5551 12.4951 13.5551H13.4852C14.0204 13.5551 14.4555 13.12 14.4555 12.5848C14.4555 12.0499 14.0204 11.6147 13.4852 11.6147ZM13.4852 12.9611H12.4951C12.2877 12.9611 12.119 12.7924 12.119 12.5848C12.119 12.3775 12.2877 12.2087 12.4951 12.2087H13.4852C13.6927 12.2087 13.8615 12.3775 13.8615 12.5848C13.8615 12.7924 13.6927 12.9611 13.4852 12.9611Z" fill="#52C6FE"/>
<path d="M16.5348 11.6147H15.5448C15.0096 11.6147 14.5745 12.0499 14.5745 12.5848C14.5745 13.12 15.0096 13.5551 15.5448 13.5551H16.5348C17.0699 13.5551 17.5051 13.12 17.5051 12.5848C17.5051 12.0499 17.0699 11.6147 16.5348 11.6147ZM16.5348 12.9611H15.5448C15.3372 12.9611 15.1685 12.7924 15.1685 12.5848C15.1685 12.3775 15.3372 12.2087 15.5448 12.2087H16.5348C16.7423 12.2087 16.911 12.3775 16.911 12.5848C16.911 12.7924 16.7423 12.9611 16.5348 12.9611Z" fill="#52C6FE"/>
<path d="M9.44565 15.773H10.4358C10.9708 15.773 11.4061 15.3377 11.4061 14.8027C11.4061 14.2677 10.9708 13.8324 10.4358 13.8324H9.44565C8.91068 13.8324 8.47534 14.2677 8.47534 14.8027C8.47534 15.3377 8.91068 15.773 9.44565 15.773ZM9.44565 14.4264H10.4358C10.6432 14.4264 10.8121 14.5953 10.8121 14.8027C10.8121 15.0102 10.6432 15.179 10.4358 15.179H9.44565C9.23828 15.179 9.06937 15.0102 9.06937 14.8027C9.06937 14.5953 9.23828 14.4264 9.44565 14.4264Z" fill="#52C6FE"/>
<path d="M13.4852 13.8324H12.4951C11.9601 13.8324 11.5248 14.2677 11.5248 14.8027C11.5248 15.3377 11.9601 15.773 12.4951 15.773H13.4852C14.0204 15.773 14.4555 15.3377 14.4555 14.8027C14.4555 14.2677 14.0204 13.8324 13.4852 13.8324ZM13.4852 15.179H12.4951C12.2877 15.179 12.119 15.0102 12.119 14.8027C12.119 14.5953 12.2877 14.4264 12.4951 14.4264H13.4852C13.6927 14.4264 13.8615 14.5953 13.8615 14.8027C13.8615 15.0102 13.6927 15.179 13.4852 15.179Z" fill="#52C6FE"/>
<path d="M16.5348 13.8324H15.5448C15.0096 13.8324 14.5745 14.2677 14.5745 14.8027C14.5745 15.3377 15.0096 15.773 15.5448 15.773H16.5348C17.0699 15.773 17.5051 15.3377 17.5051 14.8027C17.5051 14.2677 17.0699 13.8324 16.5348 13.8324ZM16.5348 15.179H15.5448C15.3372 15.179 15.1685 15.0102 15.1685 14.8027C15.1685 14.5953 15.3372 14.4264 15.5448 14.4264H16.5348C16.7423 14.4264 16.911 14.5953 16.911 14.8027C16.911 15.0102 16.7423 15.179 16.5348 15.179Z" fill="#52C6FE"/>
</svg>
