<svg width="20" height="20" viewBox="0 0 20 20" fill="none" xmlns="http://www.w3.org/2000/svg">
<path d="M19.6875 18.7562H0.3125C0.139618 18.7562 0 18.6166 0 18.4437V14.6937C0 14.5208 0.139618 14.3812 0.3125 14.3812H19.6875C19.8604 14.3812 20 14.5208 20 14.6937V18.4437C20 18.6166 19.8604 18.7562 19.6875 18.7562ZM0.625 18.1312H19.375V15.0062H0.625V18.1312Z" fill="#52C6FE"/>
<path d="M10 17.5042C9.48318 17.5042 9.0625 17.0835 9.0625 16.5667C9.0625 16.0497 9.48318 15.6292 10 15.6292C10.5168 15.6292 10.9375 16.0497 10.9375 16.5667C10.9375 17.0835 10.5168 17.5042 10 17.5042ZM10 16.2542C9.82758 16.2542 9.6875 16.3941 9.6875 16.5667C9.6875 16.7391 9.82758 16.8792 10 16.8792C10.1724 16.8792 10.3125 16.7391 10.3125 16.5667C10.3125 16.3941 10.1724 16.2542 10 16.2542Z" fill="#52C6FE"/>
<path d="M0.312445 15.0063C0.227148 15.0063 0.141851 14.9716 0.0802059 14.9028C-0.0349979 14.7746 -0.0250797 14.5772 0.103399 14.4615L3.2284 11.6469C3.35581 11.5319 3.55402 11.5413 3.66968 11.6701C3.78489 11.7981 3.77497 11.9957 3.64649 12.1112L0.52149 14.926C0.462133 14.9797 0.38706 15.0063 0.312445 15.0063Z" fill="#52C6FE"/>
<path d="M19.6875 15.0063C19.6129 15.0063 19.5378 14.9797 19.4785 14.926L16.3535 12.1112C16.225 11.9957 16.2151 11.7981 16.3303 11.6701C16.4456 11.5413 16.6437 11.5319 16.7716 11.6469L19.8966 14.4615C20.025 14.5772 20.035 14.7746 19.9198 14.9028C19.8581 14.9713 19.7728 15.0063 19.6875 15.0063Z" fill="#52C6FE"/>
<path d="M16.5625 12.1917H3.4375C3.26462 12.1917 3.125 12.0519 3.125 11.8792C3.125 11.7063 3.26462 11.5667 3.4375 11.5667H16.5625C16.7354 11.5667 16.875 11.7063 16.875 11.8792C16.875 12.0519 16.7354 12.1917 16.5625 12.1917Z" fill="#52C6FE"/>
<path d="M4.99969 13.1292H4.06219C3.88931 13.1292 3.74969 12.9894 3.74969 12.8167C3.74969 12.6438 3.88931 12.5042 4.06219 12.5042H4.99969C5.17242 12.5042 5.31219 12.6438 5.31219 12.8167C5.31219 12.9894 5.17242 13.1292 4.99969 13.1292Z" fill="#52C6FE"/>
<path d="M7.18719 13.1292H6.24969C6.07681 13.1292 5.93719 12.9894 5.93719 12.8167C5.93719 12.6438 6.07681 12.5042 6.24969 12.5042H7.18719C7.35992 12.5042 7.49969 12.6438 7.49969 12.8167C7.49969 12.9894 7.35992 13.1292 7.18719 13.1292Z" fill="#52C6FE"/>
<path d="M9.37469 13.1292H8.43719C8.26431 13.1292 8.12469 12.9894 8.12469 12.8167C8.12469 12.6438 8.26431 12.5042 8.43719 12.5042H9.37469C9.54742 12.5042 9.68719 12.6438 9.68719 12.8167C9.68719 12.9894 9.54742 13.1292 9.37469 13.1292Z" fill="#52C6FE"/>
<path d="M11.5622 13.1292H10.6247C10.4518 13.1292 10.3122 12.9894 10.3122 12.8167C10.3122 12.6438 10.4518 12.5042 10.6247 12.5042H11.5622C11.7349 12.5042 11.8747 12.6438 11.8747 12.8167C11.8747 12.9894 11.7349 13.1292 11.5622 13.1292Z" fill="#52C6FE"/>
<path d="M13.7497 13.1292H12.8122C12.6393 13.1292 12.4997 12.9894 12.4997 12.8167C12.4997 12.6438 12.6393 12.5042 12.8122 12.5042H13.7497C13.9224 12.5042 14.0622 12.6438 14.0622 12.8167C14.0622 12.9894 13.9224 13.1292 13.7497 13.1292Z" fill="#52C6FE"/>
<path d="M15.9372 13.1292H14.9997C14.8268 13.1292 14.6872 12.9894 14.6872 12.8167C14.6872 12.6438 14.8268 12.5042 14.9997 12.5042H15.9372C16.1099 12.5042 16.2497 12.6438 16.2497 12.8167C16.2497 12.9894 16.1099 13.1292 15.9372 13.1292Z" fill="#52C6FE"/>
<path d="M4.37408 14.0667H3.12378C2.9509 14.0667 2.81128 13.9269 2.81128 13.7542C2.81128 13.5813 2.9509 13.4417 3.12378 13.4417H4.37408C4.54681 13.4417 4.68658 13.5813 4.68658 13.7542C4.68658 13.9269 4.54681 14.0667 4.37408 14.0667Z" fill="#52C6FE"/>
<path d="M6.87439 14.0667H5.62408C5.4512 14.0667 5.31158 13.9269 5.31158 13.7542C5.31158 13.5813 5.4512 13.4417 5.62408 13.4417H6.87439C7.04712 13.4417 7.18689 13.5813 7.18689 13.7542C7.18689 13.9269 7.04712 14.0667 6.87439 14.0667Z" fill="#52C6FE"/>
<path d="M9.37469 14.0667H8.12439C7.95151 14.0667 7.81189 13.9269 7.81189 13.7542C7.81189 13.5813 7.95151 13.4417 8.12439 13.4417H9.37469C9.54742 13.4417 9.68719 13.5813 9.68719 13.7542C9.68719 13.9269 9.54742 14.0667 9.37469 14.0667Z" fill="#52C6FE"/>
<path d="M11.875 14.0667H10.6247C10.4518 14.0667 10.3122 13.9269 10.3122 13.7542C10.3122 13.5813 10.4518 13.4417 10.6247 13.4417H11.875C12.0479 13.4417 12.1875 13.5813 12.1875 13.7542C12.1875 13.9269 12.0479 14.0667 11.875 14.0667Z" fill="#52C6FE"/>
<path d="M14.3753 14.0667H13.125C12.9521 14.0667 12.8125 13.9269 12.8125 13.7542C12.8125 13.5813 12.9521 13.4417 13.125 13.4417H14.3753C14.5482 13.4417 14.6878 13.5813 14.6878 13.7542C14.6878 13.9269 14.5482 14.0667 14.3753 14.0667Z" fill="#52C6FE"/>
<path d="M16.8756 14.0667H15.6253C15.4526 14.0667 15.3128 13.9269 15.3128 13.7542C15.3128 13.5813 15.4526 13.4417 15.6253 13.4417H16.8756C17.0485 13.4417 17.1881 13.5813 17.1881 13.7542C17.1881 13.9269 17.0485 14.0667 16.8756 14.0667Z" fill="#52C6FE"/>
<path d="M3.4375 9.06555C3.26462 9.06555 3.125 8.92593 3.125 8.75305C3.125 7.89154 3.82599 7.19055 4.6875 7.19055C4.86038 7.19055 5 7.33032 5 7.50305C5 7.67593 4.86038 7.81555 4.6875 7.81555C4.17068 7.81555 3.75 8.23624 3.75 8.75305C3.75 8.92593 3.61038 9.06555 3.4375 9.06555Z" fill="#52C6FE"/>
<path d="M16.5625 9.06555C16.3896 9.06555 16.25 8.92593 16.25 8.75305C16.25 8.23624 15.8293 7.81555 15.3125 7.81555C15.1396 7.81555 15 7.67593 15 7.50305C15 7.33032 15.1396 7.19055 15.3125 7.19055C16.174 7.19055 16.875 7.89154 16.875 8.75305C16.875 8.92593 16.7354 9.06555 16.5625 9.06555Z" fill="#52C6FE"/>
<path d="M15.3125 7.81555H4.6875C4.51462 7.81555 4.375 7.67593 4.375 7.50305C4.375 7.33032 4.51462 7.19055 4.6875 7.19055H15.3125C15.4854 7.19055 15.625 7.33032 15.625 7.50305C15.625 7.67593 15.4854 7.81555 15.3125 7.81555Z" fill="#52C6FE"/>
<path d="M16.5625 12.1916C16.3896 12.1916 16.25 12.0518 16.25 11.8791V8.75305C16.25 8.58032 16.3896 8.44055 16.5625 8.44055C16.7354 8.44055 16.875 8.58032 16.875 8.75305V11.8791C16.875 12.0518 16.7354 12.1916 16.5625 12.1916Z" fill="#52C6FE"/>
<path d="M3.4375 12.1916C3.26462 12.1916 3.125 12.0518 3.125 11.8791V8.75305C3.125 8.58032 3.26462 8.44055 3.4375 8.44055C3.61038 8.44055 3.75 8.58032 3.75 8.75305V11.8791C3.75 12.0518 3.61038 12.1916 3.4375 12.1916Z" fill="#52C6FE"/>
<path d="M5.00934 9.37878C4.83661 9.37878 4.69531 9.23901 4.69531 9.06628C4.69531 8.8934 4.8334 8.75378 5.00598 8.75378H5.00934C5.18192 8.75378 5.32184 8.8934 5.32184 9.06628C5.32184 9.23901 5.18192 9.37878 5.00934 9.37878Z" fill="#52C6FE"/>
<path d="M8.75 9.37878H6.56311C6.39038 9.37878 6.25061 9.23901 6.25061 9.06628C6.25061 8.8934 6.39038 8.75378 6.56311 8.75378H8.75C8.92288 8.75378 9.0625 8.8934 9.0625 9.06628C9.0625 9.23901 8.92288 9.37878 8.75 9.37878Z" fill="#52C6FE"/>
<path d="M14.9997 9.37878H14.0622C13.8893 9.37878 13.7497 9.23901 13.7497 9.06628C13.7497 8.8934 13.8893 8.75378 14.0622 8.75378H14.9997C15.1724 8.75378 15.3122 8.8934 15.3122 9.06628C15.3122 9.23901 15.1724 9.37878 14.9997 9.37878Z" fill="#52C6FE"/>
<path d="M5.00934 10.6288C4.83661 10.6288 4.69531 10.489 4.69531 10.3163C4.69531 10.1434 4.8334 10.0038 5.00598 10.0038H5.00934C5.18192 10.0038 5.32184 10.1434 5.32184 10.3163C5.32184 10.489 5.18192 10.6288 5.00934 10.6288Z" fill="#52C6FE"/>
<path d="M10.314 10.6288H6.56311C6.39038 10.6288 6.25061 10.489 6.25061 10.3163C6.25061 10.1434 6.39038 10.0038 6.56311 10.0038H10.314C10.4869 10.0038 10.6265 10.1434 10.6265 10.3163C10.6265 10.489 10.4869 10.6288 10.314 10.6288Z" fill="#52C6FE"/>
<path d="M14.9997 10.6288H13.7494C13.5765 10.6288 13.4369 10.489 13.4369 10.3163C13.4369 10.1434 13.5765 10.0038 13.7494 10.0038H14.9997C15.1724 10.0038 15.3122 10.1434 15.3122 10.3163C15.3122 10.489 15.1724 10.6288 14.9997 10.6288Z" fill="#52C6FE"/>
<path d="M13.7506 7.81558C13.5779 7.81558 13.4381 7.67596 13.4381 7.50308V5.94165C13.4381 5.76877 13.5779 5.62915 13.7506 5.62915C13.9235 5.62915 14.0631 5.76877 14.0631 5.94165V7.50308C14.0631 7.67596 13.9235 7.81558 13.7506 7.81558Z" fill="#52C6FE"/>
<path d="M15.0012 7.81558C14.8285 7.81558 14.6887 7.67596 14.6887 7.50308V5.94165C14.6887 5.76877 14.8285 5.62915 15.0012 5.62915C15.1741 5.62915 15.3137 5.76877 15.3137 5.94165V7.50308C15.3137 7.67596 15.1741 7.81558 15.0012 7.81558Z" fill="#52C6FE"/>
<path d="M16.2506 6.25415H12.5006C12.3279 6.25415 12.1881 6.11438 12.1881 5.94165V4.06665C12.1881 3.89377 12.3279 3.75415 12.5006 3.75415H16.2506C16.4235 3.75415 16.5631 3.89377 16.5631 4.06665V5.94165C16.5631 6.11438 16.4235 6.25415 16.2506 6.25415ZM12.8131 5.62915H15.9381V4.37915H12.8131V5.62915Z" fill="#52C6FE"/>
<path d="M15.3131 5.31665H13.4378C13.2651 5.31665 13.1253 5.17688 13.1253 5.00415C13.1253 4.83127 13.2651 4.69165 13.4378 4.69165H15.3131C15.486 4.69165 15.6256 4.83127 15.6256 5.00415C15.6256 5.17688 15.486 5.31665 15.3131 5.31665Z" fill="#52C6FE"/>
<path d="M4.99878 7.81555C4.8259 7.81555 4.68628 7.67593 4.68628 7.50305V2.1875C4.68628 2.01462 4.8259 1.875 4.99878 1.875C5.17151 1.875 5.31128 2.01462 5.31128 2.1875V7.50305C5.31128 7.67593 5.17151 7.81555 4.99878 7.81555Z" fill="#52C6FE"/>
<path d="M7.18689 7.81555C7.01401 7.81555 6.87439 7.67593 6.87439 7.50305V2.1875C6.87439 2.01462 7.01401 1.875 7.18689 1.875C7.35962 1.875 7.49939 2.01462 7.49939 2.1875V7.50305C7.49939 7.67593 7.35962 7.81555 7.18689 7.81555Z" fill="#52C6FE"/>
<path d="M7.18689 2.5C7.01401 2.5 6.87439 2.36038 6.87439 2.1875C6.87439 2.01508 6.73431 1.875 6.56189 1.875C6.38901 1.875 6.24939 1.73538 6.24939 1.5625C6.24939 1.38962 6.38901 1.25 6.56189 1.25C7.0787 1.25 7.49939 1.67068 7.49939 2.1875C7.49939 2.36038 7.35962 2.5 7.18689 2.5Z" fill="#52C6FE"/>
<path d="M4.99878 2.5C4.8259 2.5 4.68628 2.36038 4.68628 2.1875C4.68628 2.01508 4.5462 1.875 4.37378 1.875C4.2009 1.875 4.06128 1.73538 4.06128 1.5625C4.06128 1.38962 4.2009 1.25 4.37378 1.25C4.89059 1.25 5.31128 1.67068 5.31128 2.1875C5.31128 2.36038 5.17151 2.5 4.99878 2.5Z" fill="#52C6FE"/>
<path d="M6.56189 1.875H4.37378C4.2009 1.875 4.06128 1.73538 4.06128 1.5625C4.06128 1.38962 4.2009 1.25 4.37378 1.25H6.56189C6.73462 1.25 6.87439 1.38962 6.87439 1.5625C6.87439 1.73538 6.73462 1.875 6.56189 1.875Z" fill="#52C6FE"/>
<path d="M3.74878 2.5C3.5759 2.5 3.43628 2.36038 3.43628 2.1875C3.43628 1.67068 3.85681 1.25 4.37378 1.25C4.54651 1.25 4.68628 1.38962 4.68628 1.5625C4.68628 1.73538 4.54651 1.875 4.37378 1.875C4.2012 1.875 4.06128 2.01508 4.06128 2.1875C4.06128 2.36038 3.92151 2.5 3.74878 2.5Z" fill="#52C6FE"/>
<path d="M3.12378 5.62854C2.60681 5.62854 2.18628 5.20786 2.18628 4.69104C2.18628 4.51816 2.3259 4.37854 2.49878 4.37854C2.67151 4.37854 2.81128 4.51816 2.81128 4.69104C2.81128 4.86346 2.9512 5.00354 3.12378 5.00354C3.29651 5.00354 3.43628 5.14316 3.43628 5.31604C3.43628 5.48877 3.29651 5.62854 3.12378 5.62854Z" fill="#52C6FE"/>
<path d="M3.12378 5.62854C2.9509 5.62854 2.81128 5.48877 2.81128 5.31604C2.81128 5.14316 2.9509 5.00354 3.12378 5.00354C3.2962 5.00354 3.43628 4.86346 3.43628 4.69104C3.43628 4.51816 3.5759 4.37854 3.74878 4.37854C3.92151 4.37854 4.06128 4.51816 4.06128 4.69104C4.06128 5.20786 3.64059 5.62854 3.12378 5.62854Z" fill="#52C6FE"/>
<path d="M3.74878 5.00351C3.5759 5.00351 3.43628 4.86374 3.43628 4.69101V2.1875C3.43628 2.01462 3.5759 1.875 3.74878 1.875C3.92151 1.875 4.06128 2.01462 4.06128 2.1875V4.69101C4.06128 4.86374 3.92151 5.00351 3.74878 5.00351Z" fill="#52C6FE"/>
<path d="M4.99878 5.62854H3.12378C2.9509 5.62854 2.81128 5.48877 2.81128 5.31604C2.81128 5.14316 2.9509 5.00354 3.12378 5.00354H4.99878C5.17151 5.00354 5.31128 5.14316 5.31128 5.31604C5.31128 5.48877 5.17151 5.62854 4.99878 5.62854Z" fill="#52C6FE"/>
<path d="M2.49878 5.00354C2.3259 5.00354 2.18628 4.86377 2.18628 4.69104V4.06604C2.18628 3.89316 2.3259 3.75354 2.49878 3.75354C2.67151 3.75354 2.81128 3.89316 2.81128 4.06604V4.69104C2.81128 4.86377 2.67151 5.00354 2.49878 5.00354Z" fill="#52C6FE"/>
<path d="M3.74878 4.37854H2.49878C2.3259 4.37854 2.18628 4.23877 2.18628 4.06604C2.18628 3.89316 2.3259 3.75354 2.49878 3.75354H3.74878C3.92151 3.75354 4.06128 3.89316 4.06128 4.06604C4.06128 4.23877 3.92151 4.37854 3.74878 4.37854Z" fill="#52C6FE"/>
</svg>
