<svg width="30" height="30" viewBox="0 0 30 30" fill="none" xmlns="http://www.w3.org/2000/svg">
<path d="M16.2575 3.5L13.7575 0H3V2H1.5V4H0V30H1H29H30V8.5V7.5V6.5V5.5V3.5H16.2575ZM1 29V5H1.5H10.2425L12.7425 8.5H12.7485L15.0935 11.7755C15.191 11.9115 15.3445 11.984 15.5 11.9845V12H29V29H1ZM29 11H15.7685L13.979 8.5H29V11ZM29 7.5H13.2625L10.9065 4.209L10.906 4.2085L10.7575 4H2.5V3H3H11.7425L14.2425 6.5H29V7.5ZM14.7575 5.5L12.2575 2H4V1H13.2425L15.7425 4.5H29V5.5H14.7575Z" fill="white"/>
<path d="M13.5 27.5H27.5V17.5H13.5V27.5ZM14.5 18.5H26.5V26.5H14.5V18.5Z" fill="white"/>
<path d="M21.5 20H16.5V21.0014H21.5V20Z" fill="white"/>
<path d="M24.5 22H16.5V23.0014H24.5V22Z" fill="white"/>
<path d="M24.5 24H16.5V25.0014H24.5V24Z" fill="white"/>
</svg>
