<svg width="20" height="20" viewBox="0 0 20 20" fill="none" xmlns="http://www.w3.org/2000/svg">
<path d="M14.2683 0H2.44842C1.1798 0.00164165 0.151758 1.02968 0.150116 2.2983V14.0909C0.151758 15.3595 1.1798 16.3876 2.44842 16.3892H6.06004V15.7325H2.44842C1.54223 15.7315 0.807841 14.9971 0.806774 14.0909V8.53655H2.9153C3.10988 8.52231 3.25611 8.35306 3.24187 8.15844C3.23912 8.12093 3.23042 8.08408 3.21605 8.04931C2.92425 7.38527 3.22598 6.61041 3.89003 6.31861C4.55408 6.02681 5.32893 6.32854 5.62073 6.99259C5.76869 7.32929 5.76869 7.71261 5.62073 8.04931C5.53964 8.21898 5.61146 8.42225 5.78112 8.50335C5.825 8.52432 5.87289 8.53565 5.92148 8.5366H8.03001V10.5066C7.92154 10.4881 7.81172 10.479 7.70168 10.4793C6.61368 10.4789 5.73142 11.3606 5.73101 12.4486C5.73073 13.2324 6.19519 13.9418 6.91369 14.2551L7.17636 13.6536C6.51125 13.3643 6.2066 12.5906 6.4959 11.9254C6.70463 11.4455 7.17837 11.1354 7.70168 11.136C7.88264 11.1359 8.06157 11.1737 8.22701 11.247C8.39319 11.3195 8.58674 11.2435 8.65926 11.0774C8.67731 11.036 8.68663 10.9913 8.68667 10.9462V8.53655H10.3562C10.3376 8.64499 10.3282 8.75485 10.3283 8.86488C10.3303 9.80038 10.9881 10.6063 11.9043 10.7955L12.0356 10.1523C11.4249 10.0259 10.9863 9.48859 10.985 8.86488C10.9849 8.68393 11.0227 8.50499 11.096 8.33956C11.1685 8.17338 11.0925 7.97983 10.9264 7.90731C10.885 7.88925 10.8403 7.87994 10.7952 7.8799H8.68667V6.21034C8.7951 6.22902 8.90497 6.23837 9.015 6.23825C10.103 6.23825 10.985 5.35628 10.985 4.26828C10.985 3.18028 10.103 2.2983 9.015 2.2983C8.90497 2.29818 8.7951 2.30754 8.68667 2.32621V0.656658H14.2683C15.1745 0.657725 15.9088 1.39212 15.9099 2.2983V7.8799H13.8014C13.6201 7.87998 13.4731 8.02707 13.4732 8.20839C13.4733 8.25353 13.4826 8.29819 13.5006 8.33956C13.5739 8.50499 13.6116 8.68393 13.6116 8.86488H14.2683C14.2684 8.75485 14.259 8.64499 14.2404 8.53655H16.2382C16.4196 8.53655 16.5666 8.38955 16.5666 8.20823V2.2983C16.5649 1.02968 15.5369 0.00164165 14.2683 0ZM9.015 2.95496C9.74032 2.95496 10.3283 3.54296 10.3283 4.26828C10.3283 4.9936 9.74032 5.58159 9.015 5.58159C8.83405 5.58163 8.65511 5.54384 8.48967 5.47062C8.3235 5.3981 8.12995 5.47402 8.05743 5.6402C8.03937 5.68157 8.03006 5.72622 8.03001 5.77137V7.85265H6.36276C6.37922 7.75312 6.38775 7.65245 6.38837 7.55157C6.38837 7.54566 6.38837 7.5404 6.38837 7.53449C6.38837 7.52858 6.38837 7.5276 6.38837 7.52432C6.38837 6.43632 5.50639 5.55434 4.41839 5.55434C3.33039 5.55434 2.44842 6.43632 2.44842 7.52432C2.44842 7.5276 2.44842 7.53121 2.44842 7.53449C2.44842 7.53778 2.44842 7.54566 2.44842 7.55157C2.44904 7.65245 2.45757 7.75312 2.47403 7.85265H0.806774V2.2983C0.807841 1.39212 1.54223 0.657725 2.44842 0.656658H8.03001V2.76519C8.0301 2.94651 8.17719 3.09343 8.35851 3.09335C8.40365 3.09331 8.44831 3.08399 8.48967 3.06594C8.65511 2.99272 8.83405 2.95492 9.015 2.95496Z" fill="#52C6FE"/>
<path d="M19.1476 14.1122L16.3873 12.2115L15.3271 9.37905C15.2639 9.2091 15.0748 9.12263 14.9049 9.18587C14.8988 9.18813 14.8928 9.19059 14.8868 9.19322L12.7527 10.1372C12.5927 10.2078 12.5162 10.3915 12.5787 10.5548C12.6141 10.6467 12.6473 10.7163 12.6824 10.7886C12.7176 10.8608 12.7501 10.9284 12.7898 11.0351C13.0447 11.7161 12.7015 12.4751 12.0218 12.7336C11.3425 12.9877 10.5858 12.643 10.3316 11.9636C10.2679 11.7932 10.2403 11.6114 10.2505 11.4298C10.26 11.2487 10.1209 11.0942 9.93985 11.0847C9.89446 11.0823 9.84911 11.0894 9.80659 11.1054L7.52536 11.9646C7.35598 12.0285 7.27021 12.2173 7.33362 12.3869L8.15247 14.5745C8.04392 14.5943 7.93733 14.6237 7.83399 14.6625C6.81227 15.0433 6.29269 16.1802 6.67343 17.2019C7.05417 18.2236 8.19109 18.7432 9.21281 18.3624C9.318 18.3233 9.41966 18.2752 9.51668 18.2186L10.1037 19.7867C10.1673 19.9566 10.3565 20.0426 10.5264 19.979C10.5266 19.9789 10.5267 19.9788 10.5269 19.9788L13.78 18.7532C13.9844 19.1924 14.3604 19.5281 14.8198 19.6817L15.0274 19.0578C14.7567 18.9667 14.5318 18.7745 14.3996 18.5214L15.3895 18.1487C15.7147 19.0633 16.5809 19.6738 17.5515 19.6725V19.0158C16.6472 19.0103 15.9154 18.2785 15.9099 17.3742C15.9099 17.2871 15.8753 17.2036 15.8137 17.1421L14.6705 15.9988C14.501 15.8278 14.4818 15.5587 14.6255 15.3655C14.7091 15.2526 14.8382 15.1822 14.9784 15.1731C15.1188 15.1612 15.2571 15.213 15.3554 15.3139L17.6477 17.6063L18.112 17.1421L17.4337 16.4637C17.6008 15.964 17.5905 15.4219 17.4045 14.9288L16.7892 13.2855L18.7733 14.6517C19.0362 14.8363 19.1929 15.1374 19.1932 15.4587V19.6997H19.8498V15.4587C19.8494 14.9222 19.5873 14.4196 19.1476 14.1122ZM16.7895 15.1589C16.8802 15.4 16.913 15.659 16.8854 15.9151L15.8196 14.8497C15.3797 14.3985 14.6574 14.3894 14.2062 14.8293C13.755 15.2692 13.746 15.9915 14.1858 16.4427C14.1925 16.4496 14.1993 16.4564 14.2062 16.4631L15.2447 17.5016L10.6048 19.2493L9.97896 17.5771C9.94002 17.4732 9.8512 17.396 9.7429 17.3719C9.7195 17.3667 9.69562 17.364 9.67165 17.364C9.58575 17.3639 9.50326 17.3975 9.44182 17.4576C8.9146 17.9557 8.08336 17.9321 7.58524 17.4048C7.08712 16.8776 7.11072 16.0464 7.63798 15.5483C7.762 15.4311 7.90762 15.3392 8.06678 15.2778C8.17131 15.239 8.28048 15.2143 8.39149 15.2042C8.45979 15.1958 8.52865 15.1935 8.59736 15.1973C8.77843 15.2068 8.93295 15.0677 8.94243 14.8866C8.94481 14.8416 8.93787 14.7966 8.92207 14.7544L8.06448 12.4646L9.62798 11.8759C9.83319 12.9444 10.8657 13.6442 11.9342 13.439C12.0433 13.4181 12.1505 13.3879 12.2546 13.3488C13.2727 12.9626 13.7873 11.8262 13.4061 10.8063C13.3759 10.7255 13.3486 10.6615 13.3223 10.6043L14.8327 9.93553L16.7895 15.1589Z" fill="#52C6FE"/>
</svg>
