<svg width="24" height="24" viewBox="0 0 24 24" fill="none" xmlns="http://www.w3.org/2000/svg">
<path d="M4.54976 15.6V15.85H4.79976H6.39976C6.48265 15.85 6.54976 15.917 6.54976 16V20.8C6.54976 20.883 6.48265 20.95 6.39976 20.95H4.79976H4.54976V21.2V22.4C4.54976 22.483 4.48265 22.55 4.39976 22.55C4.31686 22.55 4.24976 22.483 4.24976 22.4V21.2V20.95H3.99976H2.39976C2.31686 20.95 2.24976 20.883 2.24976 20.8V16C2.24976 15.917 2.31686 15.85 2.39976 15.85H3.99976H4.24976V15.6V1.60001C4.24976 1.51705 4.31686 1.45001 4.39976 1.45001C4.48265 1.45001 4.54976 1.51705 4.54976 1.60001V15.6ZM5.99976 20.65H6.24976V20.4V16.4V16.15H5.99976H2.79976H2.54976V16.4V20.4V20.65H2.79976H5.99976Z" fill="#19B1FD" stroke="#19B1FD" stroke-width="0.5"/>
<path d="M12.1496 9.20001V9.45001H12.3996H13.9996C14.0825 9.45001 14.1496 9.51705 14.1496 9.60001V14.4C14.1496 14.483 14.0825 14.55 13.9996 14.55H12.3996H12.1496V14.8V22.4C12.1496 22.483 12.0825 22.55 11.9996 22.55C11.9167 22.55 11.8496 22.483 11.8496 22.4V14.8V14.55H11.5996H9.99961C9.91672 14.55 9.84961 14.483 9.84961 14.4V9.60001C9.84961 9.51705 9.91672 9.45001 9.99961 9.45001H11.5996H11.8496V9.20001V1.60001C11.8496 1.51705 11.9167 1.45001 11.9996 1.45001C12.0825 1.45001 12.1496 1.51705 12.1496 1.60001V9.20001ZM13.5996 14.25H13.8496V14V10V9.75001H13.5996H10.3996H10.1496V10V14V14.25H10.3996H13.5996Z" fill="#19B1FD" stroke="#19B1FD" stroke-width="0.5"/>
<path d="M19.75 2.80001V3.05001H20H21.6C21.6828 3.05001 21.75 3.11705 21.75 3.20001V8.00001C21.75 8.08298 21.6828 8.15001 21.6 8.15001H20H19.75V8.40001V22.4C19.75 22.483 19.6828 22.55 19.6 22.55C19.5171 22.55 19.45 22.483 19.45 22.4V8.40001V8.15001H19.2H17.6C17.5171 8.15001 17.45 8.08298 17.45 8.00001V3.20001C17.45 3.11705 17.5171 3.05001 17.6 3.05001H19.2H19.45V2.80001V1.60001C19.45 1.51705 19.5171 1.45001 19.6 1.45001C19.6828 1.45001 19.75 1.51705 19.75 1.60001V2.80001ZM21.2 7.85001H21.45V7.60001V3.60001V3.35001H21.2H18H17.75V3.60001V7.60001V7.85001H18H21.2Z" fill="#19B1FD" stroke="#19B1FD" stroke-width="0.5"/>
</svg>
