<svg width="20" height="20" viewBox="0 0 20 20" fill="none" xmlns="http://www.w3.org/2000/svg">
<path d="M16.9961 11.6485L16.9034 11.6985C16.5291 11.2442 15.8807 11.0682 15.3866 11.3186C15.3848 11.3195 15.3831 11.3204 15.3814 11.3213L15.1626 11.4391C14.9017 11.2182 14.5791 11.0832 14.2386 11.0524C13.8982 11.0216 13.5565 11.0967 13.2603 11.2672L12.0823 11.9078H10.5149C10.1755 11.9074 9.84057 11.8306 9.53484 11.6833L9.31921 11.579C8.70533 11.2803 8.02077 11.1573 7.34131 11.2237C6.66185 11.29 6.01402 11.5431 5.46953 11.9549C5.46441 11.9589 5.45941 11.9628 5.45464 11.9672L4.93406 12.4306C4.73732 12.6053 4.50477 12.735 4.25269 12.8104L3.95703 11.8399C3.94238 11.7918 3.91269 11.7498 3.87233 11.7199C3.83196 11.69 3.78307 11.6739 3.73285 11.6739H1.21515C1.18198 11.6739 1.14918 11.6809 1.11894 11.6945C1.08869 11.7081 1.06167 11.728 1.03968 11.7528C1.01769 11.7777 1.00122 11.8069 0.991362 11.8386C0.981504 11.8703 0.978482 11.9037 0.982496 11.9366L1.82171 18.8178C1.82864 18.8747 1.85613 18.927 1.89899 18.9649C1.94185 19.0029 1.99712 19.0239 2.05437 19.0239H5.8307C5.86733 19.0239 5.90344 19.0153 5.93615 18.9988C5.96886 18.9823 5.99725 18.9584 6.01905 18.929C6.04084 18.8995 6.05544 18.8654 6.06166 18.8293C6.06789 18.7932 6.06556 18.7562 6.05488 18.7211L5.55878 17.0932L7.10386 16.1167C7.3106 16.0023 7.55314 15.9709 7.78218 16.0289C7.78703 16.0301 7.79191 16.0312 7.79683 16.0321L10.9398 16.6108C11.7939 16.7636 12.6745 16.6393 13.4529 16.256C13.4629 16.2511 13.4725 16.2454 13.4816 16.2392L18.9177 12.5067C18.9669 12.4729 19.0014 12.4215 19.0141 12.3631C19.0267 12.3048 19.0166 12.2437 18.9858 12.1926C18.788 11.8631 18.4708 11.6227 18.1001 11.5213C17.7295 11.42 17.334 11.4655 16.9961 11.6485ZM15.6009 11.7355C15.8866 11.5924 16.2464 11.7097 16.4761 11.929L14.4147 13.0411L14.2936 13.1049C14.2284 12.9195 14.133 12.7462 14.0113 12.5919L15.6009 11.7355ZM13.4871 11.6775C13.4889 11.6764 13.491 11.6754 13.4927 11.6743C13.6773 11.5676 13.8872 11.5124 14.1004 11.5144C14.3136 11.5164 14.5224 11.5756 14.705 11.6857L13.6569 12.25C13.4571 12.1042 13.2291 12.0016 12.9875 11.9487L13.4871 11.6775ZM2.26171 18.5551L1.47988 12.1426H3.55914L5.51421 18.5551H2.26171ZM13.2298 15.843C12.5454 16.1761 11.7729 16.2835 11.0236 16.1495L7.88843 15.5722C7.54358 15.487 7.17925 15.5364 6.86949 15.7103C6.86586 15.7123 6.86222 15.7144 6.85867 15.7167L5.41668 16.6283L4.38933 13.2591C4.70612 13.1637 4.99828 13.0003 5.24546 12.7803L5.75871 12.3233C6.23422 11.9658 6.79918 11.7465 7.39136 11.6895C7.98353 11.6326 8.57994 11.7402 9.11488 12.0005L9.33047 12.1048C9.69987 12.2828 10.1046 12.3755 10.5146 12.3761H12.6055C12.9127 12.3765 13.2102 12.4839 13.4469 12.6799C13.6836 12.8759 13.8446 13.1481 13.9023 13.4499L12.3869 13.3814C11.836 13.3566 11.284 13.3821 10.7377 13.4576C10.6766 13.4666 10.6216 13.4994 10.5845 13.5489C10.5475 13.5983 10.5315 13.6604 10.5399 13.7215C10.5484 13.7827 10.5807 13.8381 10.6298 13.8756C10.6788 13.9131 10.7407 13.9297 10.802 13.9219C11.3199 13.8503 11.8434 13.8261 12.3657 13.8497L14.1491 13.9303C14.1527 13.9303 14.1562 13.9306 14.1598 13.9306C14.2219 13.9306 14.2815 13.9059 14.3255 13.8619C14.3694 13.818 14.3941 13.7584 14.3941 13.6962C14.3941 13.6583 14.3925 13.6207 14.3902 13.5833L14.6348 13.4544L17.2187 12.0608C17.4172 11.9533 17.6456 11.9145 17.8684 11.9502C18.0912 11.9859 18.296 12.0942 18.4509 12.2583L13.2298 15.843Z" fill="#52C6FE"/>
<path d="M3.00677 17.5855C3.00677 17.7314 3.05005 17.8741 3.13113 17.9954C3.21221 18.1168 3.32745 18.2114 3.46229 18.2672C3.59712 18.3231 3.74548 18.3377 3.88862 18.3092C4.03176 18.2807 4.16323 18.2104 4.26643 18.1073C4.36963 18.0041 4.4399 17.8726 4.46837 17.7294C4.49685 17.5863 4.48223 17.4379 4.42638 17.3031C4.37054 17.1683 4.27596 17.053 4.15461 16.972C4.03327 16.8909 3.8906 16.8476 3.74466 16.8476C3.54903 16.8478 3.36147 16.9256 3.22314 17.064C3.0848 17.2023 3.00699 17.3899 3.00677 17.5855ZM3.74466 17.3163C3.79789 17.3163 3.84993 17.3321 3.89419 17.3617C3.93845 17.3913 3.97295 17.4333 3.99332 17.4825C4.01369 17.5317 4.01902 17.5858 4.00863 17.638C3.99825 17.6902 3.97261 17.7382 3.93497 17.7758C3.89733 17.8134 3.84938 17.8391 3.79717 17.8495C3.74496 17.8598 3.69085 17.8545 3.64167 17.8341C3.59249 17.8138 3.55046 17.7793 3.52088 17.735C3.49131 17.6908 3.47552 17.6387 3.47552 17.5855C3.47565 17.5141 3.50405 17.4458 3.55449 17.3953C3.60494 17.3449 3.67333 17.3165 3.74466 17.3164V17.3163Z" fill="#52C6FE"/>
<path d="M11.7821 3.52757V2.75522C11.7799 2.28484 11.5915 1.83447 11.2581 1.50263C10.9247 1.17079 10.4734 0.984497 10.003 0.984497C9.53265 0.984497 9.0814 1.17079 8.74801 1.50263C8.41461 1.83447 8.2262 2.28484 8.224 2.75522V3.52757C8.2262 3.99795 8.41461 4.44832 8.74801 4.78016C9.0814 5.112 9.53265 5.29829 10.003 5.29829C10.4734 5.29829 10.9247 5.112 11.2581 4.78016C11.5915 4.44832 11.7799 3.99795 11.7821 3.52757ZM8.69275 3.52757V2.75522C8.69464 2.40895 8.83352 2.07751 9.07904 1.83332C9.32457 1.58914 9.65676 1.45207 10.003 1.45207C10.3493 1.45207 10.6815 1.58914 10.927 1.83332C11.1726 2.07751 11.3114 2.40895 11.3133 2.75522V3.52757C11.3114 3.87384 11.1726 4.20528 10.927 4.44947C10.6815 4.69366 10.3493 4.83073 10.003 4.83073C9.65676 4.83073 9.32457 4.69366 9.07904 4.44947C8.83352 4.20528 8.69464 3.87384 8.69275 3.52757Z" fill="#52C6FE"/>
<path d="M7.13547 10.1338H12.8707C12.9329 10.1338 12.9925 10.1091 13.0364 10.0652C13.0804 10.0212 13.1051 9.96158 13.1051 9.89942V9.36145H17.0312C17.0934 9.36145 17.153 9.33676 17.197 9.29281C17.2409 9.24885 17.2656 9.18924 17.2656 9.12708V7.60583C17.2654 7.15945 17.0952 6.72992 16.7897 6.40447C16.4842 6.07902 16.0662 5.88208 15.6208 5.85364C15.4958 5.84446 15.4315 5.9236 15.3794 5.98716C15.2757 6.11385 15.1445 6.2152 14.9957 6.28348C14.8469 6.35176 14.6845 6.38518 14.5208 6.38118C14.3571 6.37719 14.1965 6.33588 14.0513 6.26041C13.906 6.18495 13.7798 6.07731 13.6825 5.94571C13.6601 5.91542 13.6307 5.89097 13.5969 5.87443C13.5631 5.85789 13.5258 5.84974 13.4881 5.85067C13.1837 5.85751 12.8864 5.94425 12.626 6.1022C12.4541 5.9023 12.2438 5.73895 12.0076 5.6218C11.7714 5.50465 11.5141 5.4361 11.251 5.4202C11.1299 5.41528 11.0686 5.4888 11.0093 5.56083C10.8876 5.70951 10.7336 5.82846 10.559 5.9086C10.3844 5.98874 10.1938 6.02796 10.0018 6.02327C9.8097 6.01858 9.62125 5.9701 9.45077 5.88153C9.28028 5.79297 9.13227 5.66664 9.01801 5.5122C8.99567 5.48187 8.96633 5.4574 8.93249 5.44086C8.89866 5.42431 8.86132 5.4162 8.82367 5.4172C8.30968 5.42908 7.8209 5.6423 7.46254 6.01095C7.43293 6.04122 7.40484 6.07259 7.37746 6.10442C7.13545 5.95708 6.86116 5.87098 6.57836 5.85356C6.45379 5.84438 6.38906 5.92352 6.33699 5.98708C6.23331 6.11377 6.10207 6.21512 5.95327 6.2834C5.80448 6.35169 5.64207 6.3851 5.47841 6.3811C5.31474 6.37711 5.15415 6.3358 5.00887 6.26034C4.86359 6.18487 4.73746 6.07723 4.64008 5.94563C4.61767 5.91538 4.58832 5.89096 4.5545 5.87442C4.52068 5.85788 4.48338 5.84971 4.44574 5.85059C3.98794 5.86225 3.5528 6.05228 3.2331 6.38017C2.9134 6.70807 2.73444 7.14788 2.73438 7.60583V9.12708C2.73438 9.18924 2.75907 9.24885 2.80302 9.29281C2.84698 9.33676 2.90659 9.36145 2.96875 9.36145H6.90109V9.89942C6.90109 9.96158 6.92579 10.0212 6.96974 10.0652C7.01369 10.1091 7.07331 10.1338 7.13547 10.1338ZM13.388 6.32684C13.5325 6.49085 13.7102 6.62233 13.9093 6.71257C14.1084 6.80281 14.3244 6.84977 14.5429 6.85034C14.7615 6.85092 14.9777 6.80509 15.1773 6.71589C15.3768 6.62669 15.5552 6.49615 15.7005 6.3329C16.0053 6.37888 16.2835 6.53259 16.4847 6.76614C16.6858 6.99969 16.7966 7.2976 16.7969 7.60583V8.8927H13.1051V7.38915C13.1053 7.07703 13.0311 6.76937 12.8885 6.49173C13.0416 6.40242 13.2118 6.34625 13.388 6.32684ZM8.72266 5.89306C8.88471 6.08066 9.08516 6.23127 9.31046 6.33469C9.53576 6.43812 9.78064 6.49195 10.0285 6.49254C10.2764 6.49313 10.5216 6.44046 10.7474 6.33811C10.9732 6.23575 11.1743 6.0861 11.3373 5.89927C11.6971 5.94904 12.0269 6.12728 12.2657 6.40109C12.5044 6.67491 12.6361 7.02584 12.6365 7.38915V9.66505H7.36984V7.38915C7.37217 7.01714 7.51137 6.659 7.76088 6.38306C8.01039 6.10712 8.35275 5.9327 8.72266 5.89306ZM3.20312 8.8927V7.60583C3.20511 7.29005 3.32231 6.98585 3.53272 6.75038C3.74314 6.5149 4.03229 6.36435 4.34586 6.327C4.49036 6.49096 4.66801 6.62238 4.86707 6.71259C5.06613 6.80279 5.28206 6.84973 5.50061 6.85028C5.71915 6.85084 5.93532 6.80501 6.13484 6.71582C6.33436 6.62663 6.51268 6.49612 6.65801 6.3329C6.81938 6.35702 6.97465 6.41181 7.11543 6.49431C6.97412 6.7714 6.90066 7.0781 6.90109 7.38915V8.8927H3.20312Z" fill="#52C6FE"/>
<path d="M16.1076 4.22572V3.54966C16.1076 3.12892 15.9404 2.72541 15.6429 2.4279C15.3454 2.1304 14.9419 1.96326 14.5212 1.96326C14.1004 1.96326 13.6969 2.1304 13.3994 2.4279C13.1019 2.72541 12.9348 3.12892 12.9348 3.54966V4.22572C12.9348 4.64646 13.1019 5.04997 13.3994 5.34748C13.6969 5.64499 14.1004 5.81212 14.5212 5.81212C14.9419 5.81212 15.3454 5.64499 15.6429 5.34748C15.9404 5.04997 16.1076 4.64646 16.1076 4.22572ZM13.4035 4.22572V3.54966C13.4035 3.25324 13.5213 2.96896 13.7309 2.75936C13.9405 2.54976 14.2247 2.43201 14.5212 2.43201C14.8176 2.43201 15.1019 2.54976 15.3115 2.75936C15.5211 2.96896 15.6388 3.25324 15.6388 3.54966V4.22572C15.6388 4.52214 15.5211 4.80642 15.3115 5.01602C15.1019 5.22562 14.8176 5.34337 14.5212 5.34337C14.2247 5.34337 13.9405 5.22562 13.7309 5.01602C13.5213 4.80642 13.4035 4.52214 13.4035 4.22572Z" fill="#52C6FE"/>
<path d="M7.06526 4.22572V3.54966C7.06526 3.34133 7.02423 3.13504 6.9445 2.94257C6.86478 2.7501 6.74793 2.57522 6.60061 2.4279C6.4533 2.28059 6.27842 2.16374 6.08595 2.08401C5.89348 2.00429 5.68719 1.96326 5.47886 1.96326C5.27053 1.96326 5.06424 2.00429 4.87177 2.08401C4.6793 2.16374 4.50441 2.28059 4.3571 2.4279C4.20979 2.57522 4.09294 2.7501 4.01321 2.94257C3.93349 3.13504 3.89246 3.34133 3.89246 3.54966V4.22572C3.89246 4.43405 3.93349 4.64034 4.01321 4.83281C4.09294 5.02528 4.20979 5.20017 4.3571 5.34748C4.50441 5.49479 4.6793 5.61164 4.87177 5.69137C5.06424 5.77109 5.27053 5.81212 5.47886 5.81212C5.68719 5.81212 5.89348 5.77109 6.08595 5.69137C6.27842 5.61164 6.4533 5.49479 6.60061 5.34748C6.74793 5.20017 6.86478 5.02528 6.9445 4.83281C7.02423 4.64034 7.06526 4.43405 7.06526 4.22572ZM4.3612 4.22572V3.54966C4.3612 3.25324 4.47896 2.96896 4.68856 2.75936C4.89816 2.54976 5.18244 2.43201 5.47886 2.43201C5.77528 2.43201 6.05956 2.54976 6.26916 2.75936C6.47876 2.96896 6.59651 3.25324 6.59651 3.54966V4.22572C6.59651 4.37249 6.5676 4.51783 6.51144 4.65343C6.45527 4.78903 6.37294 4.91224 6.26916 5.01602C6.16538 5.1198 6.04217 5.20213 5.90657 5.2583C5.77097 5.31447 5.62563 5.34337 5.47886 5.34337C5.33209 5.34337 5.18675 5.31447 5.05115 5.2583C4.91555 5.20213 4.79234 5.1198 4.68856 5.01602C4.58477 4.91224 4.50245 4.78903 4.44628 4.65343C4.39011 4.51783 4.3612 4.37249 4.3612 4.22572Z" fill="#52C6FE"/>
</svg>
