<svg width="30" height="30" viewBox="0 0 30 30" fill="none" xmlns="http://www.w3.org/2000/svg">
<path d="M18.6203 10.5685V9.08674C18.6158 8.18432 18.2324 7.3203 17.5538 6.68368C16.8753 6.04706 15.9569 5.68967 14.9996 5.68967C14.0423 5.68967 13.1239 6.04706 12.4454 6.68368C11.7668 7.3203 11.3834 8.18432 11.3789 9.08674V10.5685C11.3834 11.4709 11.7668 12.3349 12.4454 12.9715C13.1239 13.6081 14.0423 13.9655 14.9996 13.9655C15.9569 13.9655 16.8753 13.6081 17.5538 12.9715C18.2324 12.3349 18.6158 11.4709 18.6203 10.5685ZM12.3329 10.5685V9.08674C12.3367 8.42243 12.6194 7.78657 13.1191 7.3181C13.6188 6.84964 14.2949 6.58668 14.9996 6.58668C15.7043 6.58668 16.3804 6.84964 16.8801 7.3181C17.3798 7.78657 17.6624 8.42243 17.6663 9.08674V10.5685C17.6624 11.2328 17.3798 11.8686 16.8801 12.3371C16.3804 12.8056 15.7043 13.0685 14.9996 13.0685C14.2949 13.0685 13.6188 12.8056 13.1191 12.3371C12.6194 11.8686 12.3367 11.2328 12.3329 10.5685Z" fill="#52C6FE"/>
<path d="M9.49466 24.3103H20.5186C20.638 24.3103 20.7526 24.2589 20.8371 24.1673C20.9216 24.0757 20.9691 23.9515 20.9691 23.822V22.7011H28.5157C28.6352 22.7011 28.7498 22.6497 28.8342 22.5581C28.9187 22.4665 28.9662 22.3423 28.9662 22.2128V19.0431C28.9657 18.1131 28.6386 17.2181 28.0514 16.54C27.4642 15.8619 26.6608 15.4515 25.8046 15.3923C25.5643 15.3732 25.4408 15.5381 25.3406 15.6705C25.1413 15.9345 24.8891 16.1456 24.6031 16.2879C24.3171 16.4302 24.0049 16.4998 23.6903 16.4915C23.3757 16.4831 23.067 16.3971 22.7878 16.2398C22.5085 16.0826 22.266 15.8583 22.0789 15.5841C22.0359 15.521 21.9795 15.4701 21.9144 15.4356C21.8494 15.4011 21.7777 15.3842 21.7053 15.3861C21.1201 15.4004 20.5486 15.5811 20.0482 15.9102C19.7177 15.4937 19.3136 15.1533 18.8596 14.9092C18.4056 14.6652 17.9111 14.5223 17.4052 14.4892C17.1725 14.4789 17.0547 14.6321 16.9407 14.7822C16.7068 15.092 16.4108 15.3398 16.0752 15.5068C15.7396 15.6738 15.3732 15.7555 15.0041 15.7457C14.6349 15.736 14.2727 15.635 13.945 15.4504C13.6173 15.2659 13.3328 15.0027 13.1132 14.6809C13.0702 14.6177 13.0138 14.5667 12.9488 14.5322C12.8837 14.4978 12.812 14.4808 12.7396 14.4829C11.7517 14.5077 10.8122 14.9519 10.1233 15.7201C10.0664 15.7831 10.0124 15.8485 9.9598 15.9148C9.49462 15.6078 8.9674 15.4284 8.42382 15.3921C8.18438 15.373 8.05996 15.5379 7.95988 15.6703C7.76058 15.9343 7.50831 16.1455 7.22232 16.2877C6.93632 16.43 6.62414 16.4996 6.30956 16.4913C5.99497 16.483 5.6863 16.3969 5.40705 16.2397C5.1278 16.0824 4.88535 15.8582 4.69818 15.584C4.6551 15.5209 4.59869 15.47 4.53368 15.4356C4.46867 15.4011 4.39698 15.3841 4.32464 15.3859C3.44467 15.4102 2.60828 15.8062 1.99377 16.4894C1.37927 17.1726 1.03528 18.0889 1.03516 19.0431V22.2128C1.03516 22.3423 1.08262 22.4665 1.16711 22.5581C1.25159 22.6497 1.36618 22.7011 1.48566 22.7011H9.04416V23.822C9.04416 23.9515 9.09162 24.0757 9.1761 24.1673C9.26059 24.2589 9.37518 24.3103 9.49466 24.3103ZM21.513 16.3783C21.7907 16.72 22.1322 16.9939 22.5149 17.1819C22.8975 17.37 23.3127 17.4678 23.7328 17.469C24.153 17.4702 24.5686 17.3747 24.9521 17.1889C25.3357 17.003 25.6785 16.731 25.9579 16.3909C26.5437 16.4867 27.0785 16.8069 27.4651 17.2936C27.8517 17.7802 28.0646 18.4009 28.0652 19.0431V21.7244H20.9691V18.5917C20.9695 17.9413 20.8268 17.3003 20.5527 16.7218C20.8471 16.5357 21.1742 16.4187 21.513 16.3783ZM12.5454 15.4744C12.8569 15.8653 13.2422 16.1791 13.6753 16.3946C14.1083 16.6101 14.5014 16.7221 15.0555 16.7235C15.6096 16.7249 16.0032 16.615 16.4372 16.4017C16.8712 16.1885 17.2579 15.8766 17.5711 15.4874C18.2628 15.5911 18.8966 15.9624 19.3556 16.533C19.8146 17.1035 20.0677 17.8347 20.0684 18.5917V23.3337H9.94516V18.5917C9.94963 17.8165 10.2172 17.0703 10.6968 16.4954C11.1764 15.9204 11.8344 15.557 12.5454 15.4744ZM1.93616 21.7244V19.0431C1.93996 18.3852 2.16525 17.7513 2.56969 17.2607C2.97414 16.7701 3.52992 16.4564 4.13265 16.3786C4.41039 16.7202 4.75186 16.994 5.13448 17.182C5.5171 17.3699 5.93216 17.4677 6.35223 17.4689C6.7723 17.47 7.18781 17.3746 7.57131 17.1887C7.95481 17.0029 8.29756 16.7309 8.57691 16.3909C8.8871 16.4411 9.18554 16.5553 9.45614 16.7272C9.18453 17.3045 9.04332 17.9436 9.04416 18.5917V21.7244H1.93616Z" fill="#52C6FE"/>
<path d="M26.8963 12.0153V10.7434C26.8963 9.95176 26.5694 9.19258 25.9874 8.63284C25.4054 8.0731 24.616 7.75864 23.7929 7.75864C22.9698 7.75864 22.1804 8.0731 21.5984 8.63284C21.0164 9.19258 20.6895 9.95176 20.6895 10.7434V12.0153C20.6895 12.8069 21.0164 13.5661 21.5984 14.1258C22.1804 14.6856 22.9698 15 23.7929 15C24.616 15 25.4054 14.6856 25.9874 14.1258C26.5694 13.5661 26.8963 12.8069 26.8963 12.0153ZM21.6065 12.0153V10.7434C21.6065 10.1857 21.8368 9.6508 22.2469 9.25645C22.6569 8.8621 23.213 8.64056 23.7929 8.64056C24.3728 8.64056 24.9289 8.8621 25.3389 9.25645C25.749 9.6508 25.9793 10.1857 25.9793 10.7434V12.0153C25.9793 12.573 25.749 13.1079 25.3389 13.5022C24.9289 13.8966 24.3728 14.1181 23.7929 14.1181C23.213 14.1181 22.6569 13.8966 22.2469 13.5022C21.8368 13.1079 21.6065 12.573 21.6065 12.0153Z" fill="#52C6FE"/>
<path d="M9.31041 12.0153V10.7434C9.31041 10.3514 9.23014 9.96327 9.07418 9.60115C8.91821 9.23903 8.68961 8.91 8.40143 8.63284C8.11325 8.35568 7.77113 8.13583 7.3946 7.98583C7.01807 7.83584 6.61451 7.75864 6.20696 7.75864C5.79941 7.75864 5.39585 7.83584 5.01933 7.98583C4.6428 8.13583 4.30068 8.35568 4.01249 8.63284C3.72431 8.91 3.49571 9.23903 3.33975 9.60115C3.18379 9.96327 3.10352 10.3514 3.10352 10.7434V12.0153C3.10352 12.4073 3.18379 12.7954 3.33975 13.1575C3.49571 13.5196 3.72431 13.8487 4.01249 14.1258C4.30068 14.403 4.6428 14.6228 5.01933 14.7728C5.39585 14.9228 5.79941 15 6.20696 15C6.61451 15 7.01807 14.9228 7.3946 14.7728C7.77113 14.6228 8.11325 14.403 8.40143 14.1258C8.68961 13.8487 8.91821 13.5196 9.07418 13.1575C9.23014 12.7954 9.31041 12.4073 9.31041 12.0153ZM4.02052 12.0153V10.7434C4.02052 10.1857 4.25088 9.6508 4.66091 9.25645C5.07095 8.8621 5.62708 8.64056 6.20696 8.64056C6.78684 8.64056 7.34298 8.8621 7.75301 9.25645C8.16305 9.6508 8.39341 10.1857 8.39341 10.7434V12.0153C8.39341 12.2914 8.33685 12.5649 8.22697 12.82C8.1171 13.0751 7.95604 13.3069 7.75301 13.5022C7.54998 13.6975 7.30895 13.8524 7.04368 13.958C6.77841 14.0637 6.49409 14.1181 6.20696 14.1181C5.91984 14.1181 5.63552 14.0637 5.37025 13.958C5.10498 13.8524 4.86394 13.6975 4.66091 13.5022C4.45788 13.3069 4.29683 13.0751 4.18695 12.82C4.07707 12.5649 4.02052 12.2914 4.02052 12.0153Z" fill="#52C6FE"/>
</svg>
