<svg width="20" height="20" viewBox="0 0 20 20" fill="none" xmlns="http://www.w3.org/2000/svg">
<g clip-path="url(#clip0)">
<path d="M10.0001 0C4.48602 0 0 4.48602 0 10.0001C0 15.5141 4.48602 20.0001 10.0001 20.0001C15.5141 20.0001 20.0001 15.5141 20.0001 10.0001C20.0001 4.48602 15.514 0 10.0001 0ZM10.0001 18.2858C5.43139 18.2858 1.71431 14.5687 1.71431 10.0001C1.71431 5.43139 5.43139 1.71431 10.0001 1.71431C14.5687 1.71431 18.2858 5.43139 18.2858 10.0001C18.2858 14.5687 14.5686 18.2858 10.0001 18.2858Z" fill="#828282"/>
<path d="M13.8694 6.13113C13.5346 5.7963 12.9917 5.7963 12.6574 6.13113L10 8.78885L7.34264 6.13113C7.00782 5.7963 6.46546 5.7963 6.13063 6.13113C5.7958 6.46595 5.7958 7.00831 6.13063 7.34314L8.78801 10.0008L6.13052 12.6585C5.79569 12.9933 5.79569 13.5357 6.13052 13.8705C6.29787 14.0378 6.51723 14.1216 6.73658 14.1216C6.95593 14.1216 7.17552 14.038 7.34264 13.8705L10 11.2129L12.6574 13.8705C12.8248 14.0378 13.0441 14.1216 13.2635 14.1216C13.4828 14.1216 13.7021 14.038 13.8695 13.8705C14.2044 13.5357 14.2044 12.9933 13.8695 12.6585L11.212 10.0009L13.8694 7.34325C14.2043 7.00843 14.2043 6.46595 13.8694 6.13113Z" fill="#828282"/>
</g>
<defs>
<clipPath id="clip0">
<rect width="20" height="20" fill="white"/>
</clipPath>
</defs>
</svg>
