<svg width="20" height="20" viewBox="0 0 20 20" fill="none" xmlns="http://www.w3.org/2000/svg">
<path d="M2.66666 20H17.3333C17.9001 20 18.3333 19.5667 18.3333 19V2C18.3333 1.43327 17.9001 1 17.3333 1H13.3333C13.3333 0.433268 12.9001 0 12.3333 0H7.66666C7.09993 0 6.66666 0.433268 6.66666 1H2.66666C2.09992 1 1.66666 1.43327 1.66666 2V19C1.66666 19.5667 2.09992 20 2.66666 20ZM7.33332 1C7.33332 0.799967 7.46662 0.666667 7.66666 0.666667H12.3333C12.5334 0.666667 12.6667 0.799967 12.6667 1V2.66667C12.6667 2.8667 12.5334 3 12.3333 3H7.66666C7.46662 3 7.33332 2.8667 7.33332 2.66667V1ZM2.33332 2C2.33332 1.79997 2.46662 1.66667 2.66666 1.66667H6.66666V2.66667C6.66666 3.2334 7.09993 3.66667 7.66666 3.66667H12.3333C12.7666 3.66667 13.1333 3.40007 13.2666 3H16.3333V15.6667H14V18H3.66666V3H5.99999V2.33333H2.99999V18.6667H14.4666L17 16.1333V2.33333H13.3333V1.66667H17.3333C17.5334 1.66667 17.6667 1.79997 17.6667 2V19C17.6667 19.2 17.5334 19.3333 17.3333 19.3333H2.66666C2.46662 19.3333 2.33332 19.2 2.33332 19V2ZM15.8667 16.3333L14.6667 17.5334V16.3333H15.8667Z" fill="black"/>
<path d="M8.66666 1.66666H11.3333V2.33332H8.66666V1.66666Z" fill="black"/>
<path d="M4.66666 11H15.3333V5.66666H4.66666V11ZM5.33332 6.33332H14.6667V10.3333H5.33332V6.33332Z" fill="black"/>
<path d="M7.66666 4.33334H12.3333V5.00001H7.66666V4.33334Z" fill="black"/>
<path d="M4.66666 11.6667H6.99999V12.3333H4.66666V11.6667Z" fill="black"/>
<path d="M7.66666 11.6667H15.3333V12.3333H7.66666V11.6667Z" fill="black"/>
<path d="M4.66666 13H8.99999V13.6667H4.66666V13Z" fill="black"/>
<path d="M9.66666 13H15.3333V13.6667H9.66666V13Z" fill="black"/>
<path d="M4.66666 14.3333H11V15H4.66666V14.3333Z" fill="black"/>
<path d="M11.6667 14.3333H15.3333V15H11.6667V14.3333Z" fill="black"/>
<path d="M4.66666 15.6667H13V16.3333H4.66666V15.6667Z" fill="black"/>
</svg>
