<svg width="14" height="14" viewBox="0 0 14 14" fill="none" xmlns="http://www.w3.org/2000/svg">
<path d="M0.875 12.25V1.75C0.875 1.26722 1.26809 0.875 1.75 0.875H10.5C10.9828 0.875 11.375 1.26722 11.375 1.75V6.89402L12.25 6.01902V1.75C12.25 0.783562 11.4664 0 10.5 0H1.75C0.783562 0 0 0.783562 0 1.75V12.25C0 13.2164 0.783562 14 1.75 14H6.5625V13.125H1.75C1.26809 13.125 0.875 12.7328 0.875 12.25ZM9.625 2.625H2.625V3.5H9.625V2.625ZM9.625 4.375H2.625V5.25H9.625V4.375ZM9.625 6.125H2.625V7H9.625V6.125ZM2.625 8.75H6.125V7.875H2.625V8.75ZM13.7436 7.875L13.125 7.25638C12.954 7.08542 12.7303 7 12.5064 7C12.2825 7 12.0586 7.08542 11.8878 7.25638L8.13138 11.0128C7.96042 11.1836 7.4375 11.8445 7.4375 12.0684L7 14L8.93112 13.5625C8.93112 13.5625 9.81641 13.0396 9.98725 12.8686L13.7436 9.11225C14.0854 8.77056 14.0854 8.21636 13.7436 7.875ZM9.67881 12.5584C9.62926 12.6055 9.45788 12.7212 9.24853 12.8545L8.11508 11.7211C8.23134 11.5617 8.36073 11.4015 8.44069 11.3221L11.269 8.49373L12.5064 9.73109L9.67881 12.5584Z" fill="#107CB1"/>
</svg>
