<svg width="20" height="20" viewBox="0 0 20 20" fill="none" xmlns="http://www.w3.org/2000/svg">
<g clip-path="url(#clip0)">
<path d="M17.5585 2.38983H2.44569C1.09663 2.38983 0 3.48646 0 4.83552V15.1645C0 16.5136 1.09663 17.6102 2.44569 17.6102H17.5543C18.9034 17.6102 20 16.5136 20 15.1645V4.83966C20.0041 3.4906 18.9075 2.38983 17.5585 2.38983ZM18.8868 15.1645C18.8868 15.897 18.2909 16.4929 17.5585 16.4929H2.44569C1.71322 16.4929 1.11732 15.897 1.11732 15.1645V4.83966C1.11732 4.10719 1.71322 3.51129 2.44569 3.51129H17.5543C18.2868 3.51129 18.8827 4.10719 18.8827 4.83966V15.1645H18.8868Z" fill="black"/>
<path d="M12.6133 9.87172L17.5047 5.48521C17.7323 5.2783 17.753 4.92655 17.546 4.69481C17.3391 4.46721 16.9874 4.44652 16.7556 4.65343L10.0104 10.7076L8.6944 9.53239C8.69026 9.52825 8.68612 9.52411 8.68612 9.51997C8.65715 9.49101 8.62819 9.46618 8.59508 9.44135L3.24023 4.64929C3.00849 4.44238 2.65674 4.46307 2.44983 4.69481C2.24292 4.92655 2.26361 5.2783 2.49535 5.48521L7.44466 9.90896L2.51604 14.5231C2.29258 14.7341 2.28016 15.0859 2.49121 15.3135C2.60294 15.4293 2.75192 15.4914 2.90089 15.4914C3.03746 15.4914 3.17402 15.4418 3.28161 15.3424L8.28471 10.6621L9.64205 11.8746C9.74964 11.9698 9.88207 12.0153 10.0145 12.0153C10.1469 12.0153 10.2835 11.9657 10.3869 11.8705L11.7815 10.6207L16.7556 15.3466C16.8632 15.45 17.0039 15.4997 17.1405 15.4997C17.2895 15.4997 17.4343 15.4418 17.546 15.3259C17.7571 15.1024 17.7488 14.7465 17.5254 14.5355L12.6133 9.87172Z" fill="black"/>
</g>
<defs>
<clipPath id="clip0">
<rect width="20" height="20" fill="white"/>
</clipPath>
</defs>
</svg>
