<svg width="20" height="20" viewBox="0 0 20 20" fill="none" xmlns="http://www.w3.org/2000/svg">
<path d="M2.33333 10.1667C2.14925 10.1667 2 10.3159 2 10.5V15.8333C2 16.0174 2.14925 16.1667 2.33333 16.1667C2.51742 16.1667 2.66667 16.0174 2.66667 15.8333V10.5C2.66667 10.3159 2.51742 10.1667 2.33333 10.1667Z" fill="#52C6FE"/>
<path d="M4.81331 7.5C4.9974 7.5 5.14665 7.35075 5.14665 7.16667C5.14681 7.13021 5.13997 7.09391 5.12663 7.06006C5.08691 6.93148 4.97396 6.83952 4.84001 6.82666C4.03125 6.75098 3.39486 6.10335 3.33333 5.29329C3.33512 5.28125 3.33512 5.26888 3.33333 5.25667V5.22005C3.33171 5.20231 3.33171 5.18441 3.33333 5.16667V3.5H4.70003C4.88411 3.5 5.03337 3.35075 5.03337 3.16667C5.03337 2.98258 4.88411 2.83333 4.70003 2.83333H3C2.81592 2.83333 2.66667 2.98258 2.66667 3.16667V4.65332C2.24349 4.2749 2.00114 3.73437 2 3.16667V1.16667H6C6.65381 1.16699 7.26628 1.48682 7.63997 2.02327C7.7487 2.16357 7.94808 2.19401 8.09375 2.09277C8.23942 1.99154 8.28027 1.79411 8.18669 1.64339C7.68848 0.927572 6.87191 0.500651 6 0.5H2C1.63184 0.5 1.33333 0.798503 1.33333 1.16667V3.16667C1.32878 4.132 1.84652 5.02458 2.68669 5.5C2.75716 6.00537 2.99137 6.4738 3.35335 6.83333H2.33333C1.0446 6.83333 0 7.87793 0 9.16667V15.8333C0 16.0174 0.149251 16.1667 0.333333 16.1667C0.517415 16.1667 0.666667 16.0174 0.666667 15.8333V9.16667C0.666667 8.24626 1.41292 7.5 2.33333 7.5H4.81331Z" fill="#52C6FE"/>
<path d="M4.66669 9.75328L4.42662 8.83336H5.51337C5.69745 8.83336 5.84671 8.68411 5.84671 8.50002C5.84671 8.31594 5.69745 8.16669 5.51337 8.16669H4.00002C3.89748 8.1662 3.80031 8.21291 3.73667 8.29332C3.67352 8.37454 3.65139 8.48033 3.67661 8.5801L4.00995 9.91344C4.05422 10.0948 4.237 10.2059 4.41832 10.1616C4.59963 10.1175 4.7108 9.93476 4.66669 9.75328Z" fill="#52C6FE"/>
<path d="M17.6667 10.1667C17.4826 10.1667 17.3333 10.3159 17.3333 10.5V15.8333C17.3333 16.0174 17.4826 16.1667 17.6667 16.1667C17.8508 16.1667 18 16.0174 18 15.8333V10.5C18 10.3159 17.8508 10.1667 17.6667 10.1667Z" fill="#52C6FE"/>
<path d="M18.6667 7.06006V3.83333C18.6667 1.99235 17.1743 0.5 15.3333 0.5H14.6667C13.6839 0.50179 12.752 0.937337 12.12 1.68994C12.0332 1.77979 12.0039 1.91048 12.0439 2.02865C12.084 2.14681 12.1867 2.23275 12.3101 2.2513C12.4336 2.26986 12.557 2.21794 12.63 2.1167C13.1357 1.51546 13.881 1.16781 14.6667 1.16667H15.3333C16.8062 1.16667 18 2.36051 18 3.83333V6.85661C17.9245 6.85661 17.8478 6.84993 17.77 6.83659H16.6367C17.0841 6.39632 17.3351 5.79443 17.3333 5.16667V3.16667C17.3333 2.98258 17.1841 2.83333 17 2.83333H14.4933C14.3092 2.83333 14.16 2.98258 14.16 3.16667C14.16 3.35075 14.3092 3.5 14.4933 3.5H16.6667V5.16667C16.6706 6.02816 16.0174 6.75065 15.16 6.83333C15.026 6.84619 14.9131 6.93815 14.8734 7.06673C14.86 7.10059 14.8532 7.13688 14.8534 7.17334C14.8534 7.35742 15.0026 7.50667 15.1867 7.50667H16.0999L14.8333 9.78337C14.744 9.94434 14.8022 10.1475 14.9634 10.2367C15.0132 10.265 15.0693 10.2798 15.1266 10.2799C15.2469 10.2798 15.3577 10.2148 15.4167 10.11L16.8633 7.5H17.7401C17.9049 7.50651 18.0679 7.53792 18.2233 7.59326H18.25C18.9056 7.83822 19.3384 8.4668 19.3333 9.16667V15.8333C19.3333 16.0174 19.4826 16.1667 19.6667 16.1667C19.8507 16.1667 20 16.0174 20 15.8333V9.16667C19.9993 8.26595 19.4805 7.44596 18.6667 7.06006Z" fill="#52C6FE"/>
<path d="M13 10.1667H11.8833C12.4028 9.74741 12.7677 9.16668 12.9199 8.51661C13.7886 8.05421 14.3319 7.15073 14.3333 6.16668V5.50001C14.3333 4.02719 13.1395 2.83334 11.6667 2.83334H6.33332C5.96516 2.83334 5.66666 3.13185 5.66666 3.50001V6.16668C5.66812 7.15073 6.21142 8.05421 7.08007 8.51661C7.23225 9.16668 7.59716 9.74741 8.11669 10.1667H6.99999C5.71125 10.1667 4.66666 11.2113 4.66666 12.5V19.1667C4.66666 19.3508 4.81591 19.5 4.99999 19.5C5.18407 19.5 5.33332 19.3508 5.33332 19.1667V12.5C5.33332 11.5796 6.07958 10.8333 6.99999 10.8333H13C13.9204 10.8333 14.6667 11.5796 14.6667 12.5V19.1667C14.6667 19.3508 14.8159 19.5 15 19.5C15.1841 19.5 15.3333 19.3508 15.3333 19.1667V12.5C15.3333 11.2113 14.2887 10.1667 13 10.1667ZM6.33332 6.16668V3.50001H11.6667C12.7711 3.50001 13.6667 4.39552 13.6667 5.50001V6.16668C13.6655 6.73438 13.4232 7.27491 13 7.65333V5.16668C13 4.98259 12.8507 4.83334 12.6667 4.83334H7.33332C7.14924 4.83334 6.99999 4.98259 6.99999 5.16668V7.65333C6.57681 7.27491 6.33446 6.73438 6.33332 6.16668ZM7.7067 8.27328C7.70849 8.26124 7.70849 8.24887 7.7067 8.23666C7.68586 8.1198 7.67252 8.0018 7.66666 7.88331V5.50001H12.3333V7.88331C12.3284 8.0018 12.3162 8.1198 12.2967 8.23666C12.2947 8.24887 12.2947 8.26124 12.2967 8.27328C12.0897 9.3768 11.1261 10.1764 10.0032 10.1764C8.88052 10.1764 7.91698 9.3768 7.70995 8.27328H7.7067Z" fill="#52C6FE"/>
<path d="M11.0801 11.5C10.9015 11.4559 10.721 11.5648 10.6766 11.7433L10.4067 12.8333H9.59326L9.33333 11.7533C9.30859 11.6336 9.22037 11.5371 9.10351 11.5018C8.98649 11.4663 8.85969 11.4977 8.77262 11.5837C8.6857 11.6694 8.65283 11.7959 8.68668 11.9134L9.02001 13.1934L8.66666 16.93C8.65755 17.0361 8.6997 17.1401 8.77994 17.21L9.77995 18.0833C9.90576 18.1939 10.0942 18.1939 10.2201 18.0833L11.2201 17.21C11.3003 17.1401 11.3425 17.0361 11.3333 16.93L11 13.1934L11.3333 11.9134C11.3573 11.8247 11.3438 11.7303 11.2957 11.652C11.2479 11.5739 11.1698 11.5189 11.0801 11.5ZM10 17.39L9.33333 16.8333L9.62662 13.5H10.3467L10.6667 16.8333L10 17.39Z" fill="#52C6FE"/>
<path d="M6.99999 13.5C6.81591 13.5 6.66666 13.6493 6.66666 13.8333V19.1667C6.66666 19.3507 6.81591 19.5 6.99999 19.5C7.18407 19.5 7.33332 19.3507 7.33332 19.1667V13.8333C7.33332 13.6493 7.18407 13.5 6.99999 13.5Z" fill="#52C6FE"/>
<path d="M13 13.5C12.8159 13.5 12.6667 13.6493 12.6667 13.8333V19.1667C12.6667 19.3507 12.8159 19.5 13 19.5C13.1841 19.5 13.3333 19.3507 13.3333 19.1667V13.8333C13.3333 13.6493 13.1841 13.5 13 13.5Z" fill="#52C6FE"/>
</svg>
