<svg width="36" height="36" viewBox="0 0 36 36" fill="none" xmlns="http://www.w3.org/2000/svg">
<path d="M20.7142 14.625C20.7142 14.3218 20.4687 14.0762 20.1655 14.0762H15.8347C15.5314 14.0762 15.2859 14.3218 15.2859 14.625V20.2637H11.8126C11.5906 20.2637 11.3907 20.3973 11.3055 20.6027C11.2204 20.8076 11.2676 21.0438 11.4247 21.2003L17.6122 27.3878C17.7194 27.495 17.8594 27.5488 18.0001 27.5488C18.1407 27.5488 18.2808 27.495 18.3879 27.3878L24.5754 21.2003C24.7325 21.0438 24.7797 20.8076 24.6946 20.6027C24.6094 20.3973 24.4095 20.2637 24.1876 20.2637H20.7142V14.625ZM22.8626 21.3613L18.0001 26.2239L13.1375 21.3613H15.8347C16.1379 21.3613 16.3834 21.1158 16.3834 20.8125V15.1738H19.6167V20.8125C19.6167 21.1158 19.8622 21.3613 20.1655 21.3613H22.8626Z" fill="#19B1FD"/>
<path d="M31.8643 8.88441L23.1292 0.164813C23.0237 0.0593438 22.8723 0 22.7232 0L5.67755 0.001125C4.75003 0.001125 3.9375 0.755888 3.9375 1.68368V34.2386C3.9375 34.7088 4.17426 35.1511 4.50714 35.4845C4.84003 35.8168 5.33588 36 5.80607 36H30.3221C30.7692 36 31.2227 35.8259 31.5392 35.5095C31.855 35.1931 32.0625 34.7729 32.0625 34.3262V9.28209C32.0625 9.13298 31.9698 8.98987 31.8643 8.88441ZM22.5469 1.18997L30.3559 9H22.5264C22.5748 4.30442 22.5771 2.18267 22.5469 1.18997ZM30.9375 34.3262C30.9375 34.4707 30.8454 34.6121 30.7435 34.7144C30.6399 34.8179 30.4688 34.875 30.3221 34.875H5.80607C5.63608 34.875 5.42261 34.8088 5.30258 34.6891C5.18226 34.5685 5.0625 34.4086 5.0625 34.2386V1.68368C5.0625 1.37633 5.36602 1.12613 5.67338 1.12613L21.3991 1.12511C21.4266 2.54374 21.4113 6.80192 21.382 9.55648C21.3803 9.70672 21.4456 9.85146 21.5513 9.95805C21.6571 10.0649 21.8077 10.125 21.9579 10.125H30.9375V34.3262Z" fill="#19B1FD"/>
</svg>
