<svg width="20" height="20" viewBox="0 0 20 20" fill="none" xmlns="http://www.w3.org/2000/svg">
<path d="M18.2245 1H1.77527C1.48515 0.999466 1.21918 1.15758 1.08656 1.4094C0.952107 1.6646 0.975705 1.97191 1.14747 2.20499L7.17379 10.4871C7.1758 10.49 7.178 10.4926 7.18001 10.4955C7.39897 10.7839 7.51733 11.1332 7.51806 11.4922V18.2446C7.51678 18.4446 7.59727 18.6366 7.74178 18.7785C7.88629 18.9204 8.08275 19 8.28763 19C8.3919 19 8.49488 18.9797 8.5911 18.9408L11.9774 17.681C12.2809 17.5907 12.4823 17.3114 12.4823 16.975V11.4922C12.4829 11.1333 12.6014 10.7839 12.8202 10.4955C12.8222 10.4926 12.8244 10.49 12.8264 10.4871L18.8525 2.20463C19.0243 1.97173 19.0479 1.6646 18.9134 1.4094C18.7808 1.15758 18.5148 0.999466 18.2245 1V1ZM12.0651 9.95423C11.7285 10.3998 11.5465 10.9386 11.5454 11.4922V16.864L8.45464 18.0136V11.4922C8.45354 10.9386 8.27153 10.3998 7.93476 9.95423L2.08424 1.91373H17.9158L12.0651 9.95423Z" fill="#19B1FD" stroke="#19B1FD" stroke-width="0.997487"/>
</svg>
