<svg width="23" height="23" viewBox="0 0 23 23" fill="none" xmlns="http://www.w3.org/2000/svg">
<path fill-rule="evenodd" clip-rule="evenodd" d="M10.2837 4.50943L8.66745 2.19681L8.53025 2H1V21H22V4.50943H10.2837ZM21.3 7.01887V5.22642H10.785L12.0376 7.01887H21.3ZM1.7 20.283V2.71698H8.16975L9.91975 5.22642H9.92395L11.5654 7.57489C11.6337 7.6724 11.7408 7.72438 11.85 7.72474L21.3 7.73585V20.283H1.7Z" fill="white"/>
<path d="M10.2837 4.50943L9.87392 4.79586C9.96746 4.9297 10.1205 5.00943 10.2837 5.00943V4.50943ZM8.66745 2.19681L8.25728 2.48275L8.25762 2.48324L8.66745 2.19681ZM8.53025 2L8.94042 1.71406C8.84692 1.57994 8.69375 1.5 8.53025 1.5V2ZM1 2V1.5C0.723858 1.5 0.5 1.72386 0.5 2H1ZM1 21H0.5C0.5 21.2761 0.723858 21.5 1 21.5V21ZM22 21V21.5C22.2761 21.5 22.5 21.2761 22.5 21H22ZM22 4.50943H22.5C22.5 4.23329 22.2761 4.00943 22 4.00943V4.50943ZM21.3 5.22642H21.8C21.8 4.95027 21.5761 4.72642 21.3 4.72642V5.22642ZM21.3 7.01887V7.51887C21.5761 7.51887 21.8 7.29501 21.8 7.01887H21.3ZM12.0376 7.01887L11.6278 7.30528C11.7213 7.43913 11.8743 7.51887 12.0376 7.51887V7.01887ZM10.785 5.22642V4.72642C10.5986 4.72642 10.4277 4.83007 10.3416 4.99534C10.2554 5.16061 10.2684 5.36007 10.3751 5.51283L10.785 5.22642ZM1.7 20.283H1.2C1.2 20.5592 1.42386 20.783 1.7 20.783V20.283ZM1.7 2.71698V2.21698C1.42386 2.21698 1.2 2.44084 1.2 2.71698H1.7ZM8.16975 2.71698L8.57987 2.43097C8.48637 2.29689 8.33322 2.21698 8.16975 2.21698V2.71698ZM9.91975 5.22642L9.50963 5.51242C9.60313 5.64651 9.75628 5.72642 9.91975 5.72642V5.22642ZM9.92395 5.22642L10.3338 4.93997C10.2402 4.80614 10.0872 4.72642 9.92395 4.72642V5.22642ZM11.5654 7.57489L11.1556 7.86133L11.1558 7.8616L11.5654 7.57489ZM11.85 7.72474L11.8484 8.22473L11.8494 8.22474L11.85 7.72474ZM21.3 7.73585H21.8C21.8 7.45994 21.5765 7.23617 21.3006 7.23585L21.3 7.73585ZM21.3 20.283V20.783C21.5761 20.783 21.8 20.5592 21.8 20.283H21.3ZM10.6936 4.223L9.07728 1.91038L8.25762 2.48324L9.87392 4.79586L10.6936 4.223ZM9.07762 1.91087L8.94042 1.71406L8.12008 2.28594L8.25728 2.48275L9.07762 1.91087ZM8.53025 1.5H1V2.5H8.53025V1.5ZM0.5 2V21H1.5V2H0.5ZM1 21.5H22V20.5H1V21.5ZM22.5 21V4.50943H21.5V21H22.5ZM22 4.00943H10.2837V5.00943H22V4.00943ZM20.8 5.22642V7.01887H21.8V5.22642H20.8ZM21.3 6.51887H12.0376V7.51887H21.3V6.51887ZM12.4474 6.73245L11.1948 4.94L10.3751 5.51283L11.6278 7.30528L12.4474 6.73245ZM10.785 5.72642H21.3V4.72642H10.785V5.72642ZM2.2 20.283V2.71698H1.2V20.283H2.2ZM1.7 3.21698H8.16975V2.21698H1.7V3.21698ZM7.75963 3.00299L9.50963 5.51242L10.3299 4.94041L8.57987 2.43097L7.75963 3.00299ZM9.91975 5.72642H9.92395V4.72642H9.91975V5.72642ZM9.51414 5.51286L11.1556 7.86133L11.9753 7.28844L10.3338 4.93997L9.51414 5.51286ZM11.1558 7.8616C11.3198 8.09589 11.581 8.22386 11.8484 8.22473L11.8516 7.22474C11.9006 7.2249 11.9476 7.2489 11.9751 7.28817L11.1558 7.8616ZM20.8 7.73585V20.283H21.8V7.73585H20.8ZM21.3 19.783H1.7V20.783H21.3V19.783ZM21.3006 7.23585L11.8506 7.22474L11.8494 8.22474L21.2994 8.23585L21.3006 7.23585Z" fill="white"/>
<g clip-path="url(#clip0)">
<path d="M15.8411 13.2884H12.5754V10.0228C12.5754 9.7049 12.3178 9.44724 11.9999 9.44724C11.6821 9.44724 11.4244 9.7049 11.4244 10.0228V13.2884H8.15877C7.84092 13.2884 7.58325 13.546 7.58325 13.8639C7.58325 14.1818 7.84092 14.4394 8.15877 14.4394H11.4244V17.705C11.4244 18.0229 11.6821 18.2806 11.9999 18.2806C12.3178 18.2806 12.5754 18.0229 12.5754 17.705V14.4394H15.8411C16.1589 14.4394 16.4166 14.1818 16.4166 13.8639C16.4166 13.546 16.1589 13.2884 15.8411 13.2884Z" fill="white" stroke="white" stroke-width="0.5"/>
</g>
<defs>
<clipPath id="clip0">
<rect width="10" height="10" fill="white" transform="translate(7 8.86389)"/>
</clipPath>
</defs>
</svg>
