<svg width="20" height="20" viewBox="0 0 20 20" fill="none" xmlns="http://www.w3.org/2000/svg">
<g clip-path="url(#clip0)">
<path d="M19.9554 13.7417C19.8166 13.2361 19.3927 12.8599 18.8742 12.7821V5.18219H19.5364C19.7193 5.18219 19.8676 5.03393 19.8676 4.85107V1.53981C19.8676 1.35678 19.7193 1.20868 19.5364 1.20868H4.96689C4.78403 1.20868 4.63577 1.35678 4.63577 1.53981V4.85107C4.63577 5.03393 4.78403 5.18219 4.96689 5.18219H5.62915V11.8047H5.29802C4.47619 11.8028 3.67117 12.0384 2.98014 12.4831V10.8113C2.98014 10.6283 2.83187 10.4802 2.64901 10.4802H0.331126C0.148263 10.4802 0 10.6283 0 10.8113V18.4272C0 18.6101 0.148263 18.7584 0.331126 18.7584H2.64901C2.83187 18.7584 2.98014 18.6101 2.98014 18.4272V16.7556C3.67133 17.2001 4.47619 17.4356 5.29802 17.4339H10.7351C11.1118 17.4332 11.4867 17.3837 11.8507 17.2867L19.0199 15.3663C19.7253 15.174 20.1432 14.4484 19.9554 13.7417ZM5.29802 1.87093H19.2053V4.51994H5.29802V1.87093ZM6.2914 5.18219H18.2119V12.839L14.3689 13.8696C14.2106 13.4922 13.8877 13.2088 13.4931 13.1006L9.03144 11.904C8.78018 11.8379 8.52149 11.8044 8.26166 11.8047H6.2914V5.18219ZM2.31788 18.0961H0.662252V11.1425H2.31788V18.0961ZM18.848 14.7265L11.6801 16.647C11.3718 16.7293 11.0542 16.7711 10.7351 16.7716H5.29802C4.50965 16.7734 3.74215 16.5176 3.11255 16.0431L2.98014 15.9438V13.2948L3.11255 13.1954C3.74215 12.7208 4.50965 12.4649 5.29802 12.467H8.26166C8.46393 12.4668 8.66555 12.493 8.86135 12.5447L13.3215 13.7404C13.5851 13.813 13.778 14.0389 13.808 14.3106C13.8116 14.3242 13.816 14.3376 13.8213 14.3507C13.8174 14.365 13.8145 14.3794 13.8126 14.3941C13.8129 14.4479 13.8056 14.5016 13.7907 14.5533C13.7128 14.8419 13.4514 15.0426 13.1524 15.0431C13.094 15.0435 13.0362 15.0361 12.9799 15.0212L10.1653 14.2665C10.0499 14.2322 9.92489 14.2633 9.83888 14.3477C9.75303 14.4321 9.71956 14.5564 9.75173 14.6725C9.78391 14.7884 9.87655 14.878 9.99377 14.906L12.8083 15.661C12.9207 15.6906 13.0366 15.7055 13.1531 15.7053C13.7484 15.705 14.2701 15.3068 14.4274 14.7325C14.4459 14.666 14.4583 14.5981 14.4649 14.5296L18.5017 13.4471C18.5305 13.4398 18.5617 13.4324 18.5911 13.4275C18.9208 13.385 19.2307 13.5934 19.3159 13.9145C19.3308 13.9705 19.3382 14.0282 19.3377 14.0861C19.3382 14.3858 19.1374 14.6484 18.848 14.7265Z" fill="#52C6FE"/>
<path d="M10.596 6.50668H13.9073C14.0901 6.50668 14.2384 6.35841 14.2384 6.17555C14.2384 5.99252 14.0901 5.84442 13.9073 5.84442H10.596C10.4132 5.84442 10.2649 5.99252 10.2649 6.17555C10.2649 6.35841 10.4132 6.50668 10.596 6.50668Z" fill="#52C6FE"/>
</g>
<defs>
<clipPath id="clip0">
<rect width="20" height="20" fill="white"/>
</clipPath>
</defs>
</svg>
