<svg width="30" height="31" viewBox="0 0 30 31" fill="none" xmlns="http://www.w3.org/2000/svg">
<path d="M28.6212 10.9273H21.8931L17.1636 1.03361C16.994 0.678899 16.7073 0.417058 16.3562 0.296277C16.0051 0.175496 15.6317 0.210332 15.3047 0.394301C15.1911 0.458251 15.0894 0.537331 15 0.62779C14.9106 0.537394 14.8089 0.458251 14.6952 0.394301C14.3683 0.210332 13.9948 0.17556 13.6437 0.296277C13.2926 0.416995 13.0059 0.678899 12.8364 1.03361L7.85109 11.4622C7.68152 11.817 7.64941 12.2221 7.76074 12.603C7.79871 12.733 7.85297 12.8541 7.91953 12.9656H1.37883C1.10314 12.9656 0.878906 12.7223 0.878906 12.4232C0.878906 12.1242 1.1032 11.8808 1.37883 11.8808H6.38889C6.63158 11.8808 6.82834 11.6674 6.82834 11.4041C6.82834 11.1408 6.63158 10.9273 6.38889 10.9273H1.37883C0.618574 10.9273 0 11.5984 0 12.4232C0 13.1073 0.425508 13.6851 1.00436 13.8626L3.54961 28.5896C3.71338 29.5376 4.4775 30.2256 5.36648 30.2256H24.6336C25.5226 30.2256 26.2866 29.5376 26.4504 28.5896L28.9957 13.8625C29.5745 13.6851 30 13.1073 30 12.4232C30 11.5983 29.3814 10.9273 28.6212 10.9273ZM15.7094 1.24085C15.8279 1.17417 15.9633 1.16152 16.0906 1.20531C16.2179 1.24905 16.3219 1.34402 16.3833 1.47262L21.3686 11.9013C21.4301 12.0299 21.4417 12.1768 21.4014 12.3149C21.3611 12.453 21.2735 12.5658 21.1549 12.6325C21.0364 12.6992 20.901 12.7118 20.7737 12.6681C20.6464 12.6243 20.5424 12.5294 20.481 12.4008L15.4958 1.97202C15.3688 1.70656 15.4647 1.37854 15.7094 1.24085ZM21.5613 13.9192L21.1454 18.571H15.4395V13.9192H21.5613ZM15 3.00603L19.7009 12.8397C19.7216 12.8831 19.7442 12.9251 19.7684 12.9656H10.2316C10.2558 12.9251 10.2784 12.8831 10.2991 12.8397L10.7575 11.8809H17.4463C17.689 11.8809 17.8857 11.6675 17.8857 11.4041C17.8857 11.1408 17.689 10.9274 17.4463 10.9274H11.2133L15 3.00603ZM8.63133 11.9012L13.6167 1.47256C13.6781 1.34396 13.7821 1.24899 13.9094 1.20525C13.9592 1.18809 14.0102 1.17963 14.061 1.17963C14.1401 1.17963 14.2185 1.20023 14.2906 1.24079C14.5353 1.37854 14.6312 1.70649 14.5042 1.97196L9.51891 12.4006C9.45744 12.5292 9.3535 12.6242 9.22617 12.668C9.09897 12.7117 8.96355 12.6991 8.84496 12.6324C8.72643 12.5657 8.63889 12.4529 8.59857 12.3148C8.5582 12.1768 8.56986 12.0299 8.63133 11.9012ZM1.90834 13.9192H7.55572L7.97156 18.571H2.7123L1.90834 13.9192ZM2.87713 19.5245H8.05682L8.47266 24.1763H3.68104L2.87713 19.5245ZM5.36643 29.2721C4.90014 29.2721 4.49936 28.9112 4.41346 28.414L3.84586 25.1298H8.55785L8.92816 29.2721H5.36643ZM14.5605 29.2721H9.81111L9.44086 25.1298H14.5605V29.2721ZM14.5605 24.1763H9.35561L8.93977 19.5245H14.5605V24.1763ZM14.5605 18.571H8.85457L8.43873 13.9192H14.5605V18.571ZM20.1889 29.2721H15.4395V25.1298H20.5591L20.1889 29.2721ZM20.6444 24.1764H15.4395V19.5246H21.0602L20.6444 24.1764ZM25.5865 28.414C25.5006 28.9112 25.0998 29.2721 24.6335 29.2721H21.0718L21.4422 25.1298H26.1541L25.5865 28.414ZM26.319 24.1764H21.5274L21.9432 19.5246H27.1229L26.319 24.1764ZM27.2877 18.571H22.0285L22.4443 13.9191H28.0917L27.2877 18.571ZM28.6212 12.9656H28.614C28.6137 12.9656 28.6135 12.9656 28.6132 12.9656H22.0805C22.147 12.8542 22.2012 12.733 22.2393 12.603C22.3086 12.3657 22.3222 12.119 22.2817 11.8809H28.6212C28.8969 11.8809 29.1211 12.1242 29.1211 12.4233C29.1211 12.7223 28.8968 12.9656 28.6212 12.9656Z" fill="white"/>
</svg>
