<svg width="20" height="20" viewBox="0 0 20 20" fill="none" xmlns="http://www.w3.org/2000/svg">
<g clip-path="url(#clip0)">
<path d="M19.7873 8.12754L10.307 1.18625C10.1242 1.05242 9.87584 1.05242 9.69311 1.18625L0.212718 8.12754C-0.0188446 8.29711 -0.0691571 8.62226 0.100413 8.85383C0.269984 9.08539 0.595179 9.13562 0.826702 8.96613L10 2.24957L19.1733 8.96609C19.2658 9.03386 19.3733 9.06648 19.4799 9.06648C19.6399 9.06648 19.7978 8.99285 19.8996 8.85379C20.0692 8.62226 20.0189 8.29711 19.7873 8.12754Z" fill="#52C6FE"/>
<path d="M17.2752 9.08374C16.9883 9.08374 16.7556 9.3164 16.7556 9.60339V17.8748H12.5985V13.3598C12.5985 11.9269 11.4328 10.7613 10 10.7613C8.56729 10.7613 7.40158 11.927 7.40158 13.3598V17.8749H3.24444V9.60343C3.24444 9.31644 3.01174 9.08378 2.72479 9.08378C2.43783 9.08378 2.20514 9.31644 2.20514 9.60343V18.3946C2.20514 18.6816 2.43783 18.9142 2.72479 18.9142H7.92123C8.19451 18.9142 8.41815 18.7031 8.43885 18.435C8.4401 18.4229 8.44088 18.4096 8.44088 18.3946V13.3598C8.44088 12.5001 9.1403 11.8007 10 11.8007C10.8597 11.8007 11.5592 12.5001 11.5592 13.3598V18.3946C11.5592 18.4095 11.5599 18.4226 11.5612 18.4346C11.5817 18.7028 11.8054 18.9142 12.0788 18.9142H17.2753C17.5622 18.9142 17.7949 18.6816 17.7949 18.3946V9.60343C17.7949 9.3164 17.5622 9.08374 17.2752 9.08374Z" fill="#52C6FE"/>
</g>
<defs>
<clipPath id="clip0">
<rect width="20" height="20" fill="white"/>
</clipPath>
</defs>
</svg>
