<svg width="20" height="20" viewBox="0 0 20 20" fill="none" xmlns="http://www.w3.org/2000/svg">
<path d="M16.5956 8.07683H16.2059V6.25292C16.2059 2.87944 13.5288 0.0613889 10.1828 0.00123271C10.0914 -0.000410903 9.90868 -0.000410903 9.8173 0.00123271C6.47119 0.0613889 3.79416 2.87944 3.79416 6.25292V8.07683H3.40442C2.80384 8.07683 2.31396 8.69656 2.31396 9.46194V18.61C2.31396 19.3745 2.80384 20 3.40446 20H16.5956C17.1962 20 17.6861 19.3745 17.6861 18.61V9.46194C17.6861 8.6966 17.1962 8.07683 16.5956 8.07683ZM11.2359 14.0267V16.7908C11.2359 17.1074 10.9709 17.3752 10.6541 17.3752H9.34603C9.02923 17.3752 8.76424 17.1074 8.76424 16.7908V14.0267C8.457 13.7242 8.27814 13.3061 8.27814 12.8435C8.27814 11.9668 8.95576 11.2136 9.81734 11.1788C9.90864 11.1751 10.0915 11.1751 10.1828 11.1788C11.0444 11.2136 11.722 11.9668 11.722 12.8435C11.722 13.3061 11.5431 13.7242 11.2359 14.0267ZM13.6373 8.07683H10.1828H9.8173H6.36276V6.25292C6.36276 4.24339 7.99585 2.58183 10 2.58183C12.0042 2.58183 13.6374 4.24339 13.6374 6.25292V8.07683H13.6373Z" fill="black"/>
</svg>
