<svg width="20" height="20" viewBox="0 0 20 20" fill="none" xmlns="http://www.w3.org/2000/svg">
<path fill-rule="evenodd" clip-rule="evenodd" d="M16.2059 8.07683H16.5956C17.1962 8.07683 17.6861 8.6966 17.6861 9.46194V18.61C17.6861 19.3745 17.1962 20 16.5956 20H3.40446C2.80384 20 2.31396 19.3745 2.31396 18.61V9.46194C2.31396 8.69656 2.80384 8.07683 3.40442 8.07683H3.79416V8.07422H6.36276V8.07683H13.6373L13.6374 6.25292C13.6374 4.24339 12.0042 2.58183 10 2.58183C8.40722 2.58183 7.0488 3.6313 6.55825 5.07084V5.01689C6.55825 5.03618 6.55784 5.05538 6.55702 5.07447C6.4987 5.24619 6.45273 5.42345 6.42018 5.60513C6.20394 6.03853 5.7562 6.33621 5.23893 6.33621H5.11327C4.51898 6.33621 4.01647 5.94329 3.85136 5.40306C4.25577 2.41871 6.75664 0.0562571 9.8173 0.00123271C9.90868 -0.000410903 10.0914 -0.000410903 10.1828 0.00123271C13.5288 0.0613889 16.2059 2.87944 16.2059 6.25292V8.07683ZM11.2359 16.7908V14.0267C11.5431 13.7242 11.722 13.3061 11.722 12.8435C11.722 11.9668 11.0444 11.2136 10.1828 11.1788C10.0915 11.1751 9.90864 11.1751 9.81734 11.1788C8.95576 11.2136 8.27814 11.9668 8.27814 12.8435C8.27814 13.3061 8.457 13.7242 8.76424 14.0267V16.7908C8.76424 17.1074 9.02923 17.3752 9.34603 17.3752H10.6541C10.9709 17.3752 11.2359 17.1074 11.2359 16.7908Z" fill="#6FCF97"/>
</svg>
