<svg width="28" height="28" viewBox="0 0 28 28" fill="none" xmlns="http://www.w3.org/2000/svg">
<path d="M14 28C6.28049 28 0 21.7195 0 14C0 6.28049 6.28049 0 14 0C21.7195 0 28 6.28049 28 14C28 21.7195 21.7195 28 14 28ZM14 0.848485C6.748 0.848485 0.848485 6.748 0.848485 14C0.848485 21.252 6.748 27.1515 14 27.1515C21.252 27.1515 27.1515 21.252 27.1515 14C27.1515 6.748 21.252 0.848485 14 0.848485Z" fill="white"/>
<path d="M14 28C11.0855 28 8.28463 27.1023 5.89784 25.4036C5.77057 25.3128 5.70269 25.1576 5.72305 25.0023C5.74342 24.847 5.84863 24.7147 5.99626 24.6604C9.51408 23.3579 10.0817 22.3007 10.0817 20.2745C10.0817 19.7391 9.96123 19.5635 9.74402 19.2445C9.45639 18.8253 9.06269 18.2509 8.78608 16.7508C8.74536 16.5353 8.71057 16.5183 8.51796 16.425C8.00378 16.1772 7.53117 15.8208 7.40729 14.1951C7.40729 13.4078 7.67881 12.9725 7.90366 12.7459C7.85445 12.4659 7.77384 11.9831 7.69833 11.4571C7.31396 9.10085 7.29699 6.21515 10.6112 4.87369C13.4994 3.70278 15.8047 4.34254 16.5285 5.10533C17.041 5.12145 18.3629 5.25551 19.2827 6.32545C20.698 7.97151 20.2474 11.7244 20.093 12.7417C20.3187 12.9631 20.5927 13.3925 20.5927 14.1629C20.4689 15.8208 19.9963 16.1781 19.4812 16.425C19.2878 16.5183 19.253 16.5344 19.2131 16.7508C18.9365 18.2509 18.5437 18.8253 18.256 19.2445C18.038 19.5627 17.9183 19.7391 17.9183 20.2745C17.9183 22.3007 18.486 23.3579 22.0038 24.6604C22.1514 24.7147 22.2566 24.8462 22.277 25.0023C22.2974 25.1584 22.2295 25.3128 22.1022 25.4036C19.7154 27.1023 16.9146 28 14 28ZM7.05687 25.1584C9.14584 26.4651 11.5301 27.1515 14 27.1515C16.47 27.1515 18.8542 26.4651 20.9432 25.1584C17.9955 23.9485 17.0698 22.7284 17.0698 20.2754C17.0698 19.477 17.3057 19.1316 17.556 18.7659C17.814 18.3892 18.1347 17.9208 18.3799 16.5972C18.4978 15.9575 18.8686 15.7793 19.1138 15.6613C19.3777 15.5349 19.6492 15.4042 19.7451 14.1315C19.7443 13.4833 19.4532 13.3068 19.4414 13.3C19.2852 13.2101 19.1843 13.0208 19.2174 12.8444C19.4278 11.7167 19.774 8.19975 18.6395 6.87866C17.8649 5.97757 16.6439 5.95297 16.4114 5.9623C16.3724 5.95891 16.3342 5.95806 16.2977 5.94872C16.1874 5.92072 16.0007 5.82484 15.9439 5.72642C15.7131 5.33103 13.7031 4.536 10.9294 5.65854C8.1879 6.76836 8.18196 9.14751 8.53748 11.3281C8.65457 12.1401 8.78269 12.8418 8.78354 12.8452C8.81833 13.0361 8.71905 13.2262 8.54342 13.3068C8.54596 13.3068 8.25578 13.4841 8.25578 14.1621C8.35081 15.4017 8.62317 15.5332 8.8862 15.6596C9.13142 15.7776 9.50305 15.9558 9.62099 16.5955C9.86536 17.9191 10.1861 18.3875 10.444 18.7642C10.6952 19.1299 10.9311 19.4753 10.9311 20.2737C10.9311 22.7292 10.0054 23.9493 7.05687 25.1584Z" fill="white"/>
</svg>
