<svg width="16" height="16" viewBox="0 0 16 16" fill="none" xmlns="http://www.w3.org/2000/svg">
<g clip-path="url(#clip0)">
<path d="M15.4149 4.82871L14.7078 5.53619L10.4645 1.29356L11.1717 0.58602C11.9528 -0.195218 13.2195 -0.195218 14.0007 0.58602L15.4149 2.00054C16.195 2.78135 16.195 4.04754 15.4149 4.82871ZM5.51446 13.3134C5.31919 13.5087 5.31919 13.825 5.51446 14.0203C5.70984 14.2167 6.02627 14.2167 6.22154 14.0203L14.0007 6.24323L13.2928 5.53569L5.51446 13.3134ZM1.97848 9.77829C1.78311 9.97373 1.78311 10.2899 1.97848 10.4853C2.17376 10.6806 2.49019 10.6806 2.68556 10.4853L10.4645 2.70761L9.75769 2.00054L1.97848 9.77829ZM11.1708 3.41416L3.39247 11.1923C3.00189 11.5821 3.00288 12.2158 3.39247 12.6064C3.78322 12.997 4.41594 12.9989 4.80755 12.6054L12.5858 4.82871L11.1708 3.41416ZM4.80554 14.7256C4.56637 14.4861 4.4511 14.1826 4.4082 13.8699C4.30653 13.8856 4.20415 13.9002 4.09955 13.9002C3.56529 13.9002 3.06352 13.6914 2.68556 13.3134C2.30761 12.9345 2.0996 12.4334 2.0996 11.8993C2.0996 11.8018 2.11421 11.7069 2.12793 11.6123C1.80467 11.5683 1.50589 11.4267 1.27151 11.1923C1.24902 11.17 1.24127 11.1396 1.22079 11.1152L0 15.9998L4.87195 14.7802C4.85049 14.7607 4.82618 14.746 4.80554 14.7256Z" fill="#107CB1"/>
</g>
<defs>
<clipPath id="clip0">
<rect width="16" height="16" fill="white"/>
</clipPath>
</defs>
</svg>
