<svg width="14" height="14" viewBox="0 0 14 14" fill="none" xmlns="http://www.w3.org/2000/svg">
<g clip-path="url(#clip0)">
<path d="M7.00004 0C3.14022 0 0 3.14022 0 7.00004C0 10.8599 3.14022 14.0001 7.00004 14.0001C10.8599 14.0001 14.0001 10.8599 14.0001 7.00004C14.0001 3.14022 10.8598 0 7.00004 0ZM7.00004 12.8001C3.80198 12.8001 1.20002 10.1981 1.20002 7.00004C1.20002 3.80198 3.80198 1.20002 7.00004 1.20002C10.1981 1.20002 12.8001 3.80198 12.8001 7.00004C12.8001 10.1981 10.198 12.8001 7.00004 12.8001Z" fill="white"/>
<path d="M10.8306 7.00043C10.8306 6.66896 10.5618 6.40023 10.2306 6.40051L7.5998 6.40068L7.59997 3.76983C7.59997 3.43837 7.33152 3.16992 7.00006 3.16992C6.66859 3.16992 6.40014 3.43837 6.40014 3.76983L6.40003 6.40062L3.76912 6.40074C3.43766 6.40074 3.16921 6.66919 3.16921 7.00065C3.16921 7.16633 3.23631 7.31638 3.34488 7.42495C3.45346 7.53353 3.60356 7.6008 3.76918 7.60063L6.39997 7.60051L6.39986 10.2313C6.39986 10.397 6.46696 10.547 6.57553 10.6556C6.68411 10.7642 6.83404 10.8313 6.99983 10.8313C7.33129 10.8313 7.59975 10.5628 7.59975 10.2314L7.5998 7.60051L10.2306 7.6004C10.5621 7.6004 10.8306 7.33189 10.8306 7.00043Z" fill="white"/>
</g>
<defs>
<clipPath id="clip0">
<rect width="14" height="14" fill="white"/>
</clipPath>
</defs>
</svg>
