<svg width="20" height="20" viewBox="0 0 20 20" fill="none" xmlns="http://www.w3.org/2000/svg">
<g clip-path="url(#clip0)">
<path d="M17.0711 2.92892C15.1823 1.04019 12.6711 0 10 0C7.32895 0 4.81766 1.04019 2.92892 2.92892C1.04019 4.81766 0 7.32895 0 10C0 12.6711 1.04019 15.1823 2.92892 17.0711C4.81766 18.9598 7.32895 20 10 20C12.6711 20 15.1823 18.9598 17.0711 17.0711C18.9598 15.1823 20 12.6711 20 10C20 7.32895 18.9598 4.81766 17.0711 2.92892ZM10 18.4375C5.3476 18.4375 1.5625 14.6524 1.5625 10C1.5625 5.3476 5.3476 1.5625 10 1.5625C14.6524 1.5625 18.4375 5.3476 18.4375 10C18.4375 14.6524 14.6524 18.4375 10 18.4375ZM10.7812 9.21799H14.2969V10.7805H10.7812V14.2961H9.21875V10.7805H5.70312V9.21799H9.21875V5.70236H10.7812V9.21799Z" fill="#19B1FD"/>
</g>
<defs>
<clipPath id="clip0">
<rect width="20" height="20" fill="white"/>
</clipPath>
</defs>
</svg>
