<svg width="12" height="12" viewBox="0 0 12 12" fill="none" xmlns="http://www.w3.org/2000/svg">
<path d="M10.6094 5.35938H6.64062V1.39062C6.64062 1.03681 6.35381 0.75 6 0.75C5.64619 0.75 5.35938 1.03681 5.35938 1.39062V5.35938H1.39062C1.03681 5.35938 0.75 5.64619 0.75 6C0.75 6.35381 1.03681 6.64062 1.39062 6.64062H5.35938V10.6094C5.35938 10.9632 5.64619 11.25 6 11.25C6.35381 11.25 6.64062 10.9632 6.64062 10.6094V6.64062H10.6094C10.9632 6.64062 11.25 6.35381 11.25 6C11.25 5.64619 10.9632 5.35938 10.6094 5.35938Z" fill="white" stroke="white" stroke-width="0.5"/>
</svg>
