<svg width="20" height="20" viewBox="0 0 20 20" fill="none" xmlns="http://www.w3.org/2000/svg">
<g clip-path="url(#clip0)">
<path d="M6.00003 2.00024H1.66675V2.66691H6.00003V2.00024Z" fill="#52C6FE"/>
<path d="M6.00003 3.33356H1.66675V4.00022H6.00003V3.33356Z" fill="#52C6FE"/>
<path d="M4.66671 4.66687H1.66675V5.33353H4.66671V4.66687Z" fill="#52C6FE"/>
<path d="M4.66671 6.00018H1.66675V6.66684H4.66671V6.00018Z" fill="#52C6FE"/>
<path d="M19.9998 19.3334H6.10352e-05V20H19.9998V19.3334Z" fill="#52C6FE"/>
<path d="M19.2982 2.85124L17.9649 0.184604C17.8827 0.019856 17.6826 -0.0470598 17.5178 0.0351475C17.5177 0.0351892 17.5177 0.0352309 17.5176 0.0352725L14.8509 1.36859C14.6862 1.45088 14.6193 1.65117 14.7016 1.81592C14.7839 1.98066 14.9842 2.04754 15.1489 1.96525L17.0802 1.00026L16.5533 2.50491C14.2369 9.10183 8.27078 13.7299 1.30511 14.3334L1.36178 15.0001C8.5899 14.3739 14.7805 9.57078 17.1829 2.72491L17.7209 1.18759L18.7016 3.14923C18.7839 3.31398 18.9841 3.38086 19.1489 3.29857C19.3137 3.21627 19.3805 3.01603 19.2982 2.85124Z" fill="#52C6FE"/>
<path d="M4.00007 16.0001H1.66676C1.48268 16.0001 1.33344 16.1493 1.33344 16.3334V18.3334C1.33344 18.5174 1.48268 18.6667 1.66676 18.6667H4.00007C4.18415 18.6667 4.3334 18.5174 4.3334 18.3334V16.3334C4.3334 16.1493 4.18415 16.0001 4.00007 16.0001ZM3.66674 18H2.00009V16.6667H3.66674V18Z" fill="#52C6FE"/>
<path d="M7.6667 15.0001H5.33339C5.14931 15.0001 5.00006 15.1494 5.00006 15.3335V18.3334C5.00006 18.5175 5.14931 18.6667 5.33339 18.6667H7.6667C7.85078 18.6667 8.00003 18.5175 8.00003 18.3334V15.3335C8.00003 15.1494 7.85078 15.0001 7.6667 15.0001ZM7.33337 18.0001H5.66672V15.6668H7.33337V18.0001Z" fill="#52C6FE"/>
<path d="M11.3333 13.3334H9.00001C8.81593 13.3334 8.66669 13.4827 8.66669 13.6668V18.3334C8.66669 18.5175 8.81593 18.6667 9.00001 18.6667H11.3333C11.5174 18.6667 11.6666 18.5175 11.6666 18.3334V13.6668C11.6666 13.4827 11.5174 13.3334 11.3333 13.3334ZM11 18H9.33334V14.0001H11V18Z" fill="#52C6FE"/>
<path d="M14.9999 11.0001H12.6666C12.4826 11.0001 12.3333 11.1494 12.3333 11.3335V18.3334C12.3333 18.5174 12.4826 18.6667 12.6666 18.6667H14.9999C15.184 18.6667 15.3333 18.5174 15.3333 18.3334V11.3335C15.3333 11.1494 15.184 11.0001 14.9999 11.0001ZM14.6666 18H13V11.6668H14.6666V18Z" fill="#52C6FE"/>
<path d="M18.6666 6.3335H16.3333C16.1492 6.3335 15.9999 6.48274 15.9999 6.66683V18.3333C15.9999 18.5174 16.1492 18.6667 16.3333 18.6667H18.6666C18.8507 18.6667 18.9999 18.5174 18.9999 18.3333V6.66683C18.9999 6.48274 18.8507 6.3335 18.6666 6.3335ZM18.3332 18H16.6666V7.00015H18.3332V18Z" fill="#52C6FE"/>
</g>
<defs>
<clipPath id="clip0">
<rect width="20" height="20" fill="white"/>
</clipPath>
</defs>
</svg>
