<svg width="20" height="20" viewBox="0 0 20 20" fill="none" xmlns="http://www.w3.org/2000/svg">
<g clip-path="url(#clip0)">
<path d="M17.5624 10.4308C16.1145 8.66806 13.3865 6.5699 8.5767 6.38994V3.12614C8.5767 2.93391 8.46627 2.75395 8.2904 2.67215C8.11453 2.59035 7.90594 2.61489 7.7587 2.73759L0.184049 8.98299C0.0695298 9.07706 0 9.22021 0 9.36745C0 9.51878 0.0654398 9.65783 0.179959 9.7519L7.75461 16.0218C7.90594 16.1445 8.11044 16.1732 8.28631 16.0873C8.46218 16.0055 8.57261 15.8296 8.57261 15.6333V12.3818C11.7137 12.394 16.5154 12.6272 19.0634 17.122C19.1534 17.2816 19.3211 17.3756 19.5011 17.3756C19.542 17.3756 19.5869 17.3715 19.6278 17.3593C19.8487 17.302 20 17.1016 20 16.8766C20.0041 15.1957 19.362 12.6231 17.5624 10.4308ZM8.07363 11.3797C7.93866 11.3797 7.81187 11.4329 7.7178 11.527C7.62373 11.621 7.57056 11.7478 7.57056 11.8828V14.5699L1.29244 9.37154L7.57465 4.18953V6.87665C7.57465 7.15068 7.79551 7.37563 8.06954 7.37972C15.2679 7.44925 17.9509 11.8378 18.7321 14.9216C15.6319 11.3838 10.9898 11.3797 8.07363 11.3797Z" fill="#F83504"/>
</g>
<defs>
<clipPath id="clip0">
<rect width="20" height="20" fill="white"/>
</clipPath>
</defs>
</svg>
