<svg width="20" height="20" viewBox="0 0 20 20" fill="none" xmlns="http://www.w3.org/2000/svg">
<g clip-path="url(#clip0)">
<path d="M16.5408 2.35498H13.8704V0.619709C13.8704 0.270424 13.5887 0 13.2394 0C13.2055 0 13.1829 0.0113139 13.1719 0.0226021C13.1606 0.0113139 13.138 0 13.1267 0H6.85063H6.80569H6.76048C6.41122 0 6.1408 0.270424 6.1408 0.619709V2.355H3.45914C2.69281 2.355 2.0957 2.95211 2.0957 3.71844V4.71001V5.9494H3.27884V18.6479C3.27884 19.4142 3.86466 20 4.63098 20H15.369C16.1353 20 16.7324 19.4142 16.7324 18.6479V5.9494H17.9042V4.71001V3.71844C17.9042 2.95211 17.3069 2.35498 16.5408 2.35498ZM7.38019 1.23939H12.6197V2.35498H7.38019V1.23939ZM15.4817 18.6479C15.4817 18.727 15.4478 18.7606 15.369 18.7606H4.63098C4.55215 18.7606 4.51826 18.7269 4.51826 18.6479V5.94938H15.4817V18.6479ZM16.6535 4.70998H3.34638V3.71841C3.34638 3.63955 3.38027 3.59437 3.45911 3.59437H16.5408C16.6197 3.59437 16.6535 3.63955 16.6535 3.71841V4.70998Z" fill="white"/>
<path d="M13.5202 7.40292H12.2695V17.6563H13.5202V7.40292Z" fill="white"/>
<path d="M10.6374 7.40292H9.38672V17.6563H10.6374V7.40292Z" fill="white"/>
<path d="M7.75265 7.40292H6.50195V17.6563H7.75265V7.40292Z" fill="white"/>
</g>
<defs>
<clipPath id="clip0">
<rect width="20" height="20" fill="white"/>
</clipPath>
</defs>
</svg>
