<svg width="14" height="14" viewBox="0 0 14 14" fill="none" xmlns="http://www.w3.org/2000/svg">
<g clip-path="url(#clip0)">
<path d="M11.5788 1.64849H9.70958V0.433797C9.70958 0.189297 9.51237 0 9.26789 0C9.24416 0 9.22834 0.00791976 9.22062 0.0158214C9.2127 0.00791976 9.19688 0 9.18898 0H4.79574H4.76427H4.73263C4.48815 0 4.29885 0.189297 4.29885 0.433797V1.6485H2.42169C1.88526 1.6485 1.46729 2.06648 1.46729 2.60291V3.29701V4.16458H2.29548V13.0535C2.29548 13.59 2.70555 14 3.24198 14H10.7586C11.295 14 11.713 13.59 11.713 13.0535V4.16458H12.5332V3.29701V2.60291C12.5332 2.06648 12.1151 1.64849 11.5788 1.64849ZM5.16643 0.867575H8.83411V1.64849H5.16643V0.867575ZM10.8375 13.0535C10.8375 13.1089 10.8138 13.1324 10.7586 13.1324H3.24198C3.18679 13.1324 3.16307 13.1089 3.16307 13.0535V4.16456H10.8375V13.0535ZM11.6578 3.29699H2.34276V2.60289C2.34276 2.54769 2.36648 2.51606 2.42167 2.51606H11.5788C11.634 2.51606 11.6578 2.54769 11.6578 2.60289V3.29699Z" fill="#F83504"/>
<path d="M9.46483 5.18213H8.58936V12.3595H9.46483V5.18213Z" fill="#F83504"/>
<path d="M7.44628 5.18213H6.5708V12.3595H7.44628V5.18213Z" fill="#F83504"/>
<path d="M5.42725 5.18213H4.55176V12.3595H5.42725V5.18213Z" fill="#F83504"/>
</g>
<defs>
<clipPath id="clip0">
<rect width="14" height="14" fill="white"/>
</clipPath>
</defs>
</svg>
