<svg width="20" height="20" viewBox="0 0 20 20" fill="none" xmlns="http://www.w3.org/2000/svg">
<path d="M14.3751 0.625C13.5619 0.625079 12.7609 0.823145 12.0414 1.20209L12.3337 1.75446C12.8702 1.47472 13.4589 1.30944 14.0626 1.26906V1.875H14.6876V1.26583C15.6291 1.33232 16.5234 1.70317 17.2357 2.32242L16.8058 2.75238L17.2477 3.19427L17.6776 2.76432C18.2969 3.47663 18.6677 4.37099 18.7342 5.3125H18.1251V5.9375H18.7342C18.6677 6.87901 18.2969 7.77337 17.6776 8.48568L17.2477 8.05573L16.8058 8.49762L17.2357 8.92758C16.5234 9.54683 15.6291 9.91768 14.6876 9.98417V9.375H14.0626V9.98846C13.9716 9.98207 13.881 9.97351 13.7913 9.96155L13.7089 10.5811C14.4153 10.6753 15.1337 10.6176 15.8161 10.4117C16.4984 10.2058 17.1289 9.85662 17.6654 9.3874C18.2018 8.91818 18.6319 8.33978 18.9267 7.69092C19.2216 7.04206 19.3744 6.33771 19.3751 5.625C19.3735 4.29938 18.8463 3.02849 17.9089 2.09114C16.9716 1.15379 15.7007 0.626516 14.3751 0.625Z" fill="#52C6FE"/>
<path d="M14.0625 2.5V4.41938C13.9506 4.44851 13.8434 4.49318 13.744 4.55209L13.0334 3.84156L12.5916 4.28344L13.3021 4.99396C13.1873 5.18454 13.1262 5.40255 13.125 5.625C13.1241 5.85899 13.1889 6.08853 13.3121 6.28749C13.4352 6.48646 13.6117 6.64687 13.8215 6.75048C14.0313 6.85408 14.266 6.89671 14.4988 6.87353C14.7317 6.85034 14.9533 6.76227 15.1386 6.61933C15.3238 6.47638 15.4653 6.28431 15.5467 6.06497C15.6282 5.84562 15.6465 5.60781 15.5995 5.37859C15.5525 5.14937 15.4421 4.93794 15.2809 4.76837C15.1196 4.59879 14.914 4.47787 14.6875 4.41938V2.5H14.0625ZM15 5.625C15 5.74861 14.9633 5.86945 14.8947 5.97223C14.826 6.07501 14.7284 6.15512 14.6142 6.20242C14.5 6.24973 14.3743 6.26211 14.2531 6.23799C14.1318 6.21388 14.0205 6.15435 13.933 6.06694C13.8456 5.97953 13.7861 5.86817 13.762 5.74693C13.7379 5.62569 13.7503 5.50003 13.7976 5.38582C13.8449 5.27162 13.925 5.17401 14.0278 5.10533C14.1305 5.03666 14.2514 5 14.375 5C14.5407 5.00022 14.6995 5.06613 14.8167 5.1833C14.9339 5.30046 14.9998 5.45931 15 5.625Z" fill="#52C6FE"/>
<path d="M6.25 7.8125V3.4375C6.24973 3.18894 6.15087 2.95064 5.97511 2.77489C5.79936 2.59913 5.56106 2.50027 5.3125 2.5H0.625V3.125H5.3125C5.39536 3.12506 5.47482 3.158 5.53341 3.21659C5.592 3.27518 5.62494 3.35464 5.625 3.4375V7.8125H6.25Z" fill="#52C6FE"/>
<path d="M17.5 13.125H12.8125V11.4983C12.8696 11.455 12.9187 11.4022 12.9578 11.3422C13.0029 11.2706 13.0331 11.1906 13.0466 11.1071C13.06 11.0236 13.0565 10.9382 13.0362 10.856L12.7161 9.57672C12.6334 9.2499 12.4768 8.94643 12.2583 8.68974C12.0397 8.43306 11.7651 8.23003 11.4557 8.09631L10.3125 7.60652V7.59838C10.686 7.42111 11.0016 7.14168 11.2228 6.79243C11.4441 6.44318 11.5618 6.03842 11.5625 5.625V2.1875C11.5623 2.02181 11.4964 1.86296 11.3792 1.7458C11.262 1.62863 11.1032 1.56271 10.9375 1.5625H9.375C9.16943 1.56315 8.96979 1.63144 8.8069 1.75684C8.644 1.88223 8.5269 2.05776 8.47368 2.25632C8.36296 2.21119 8.24457 2.18782 8.125 2.1875H7.8125C7.64681 2.18771 7.48796 2.25363 7.3708 2.3708C7.25363 2.48796 7.18772 2.64681 7.1875 2.8125V5.625C7.18817 6.03842 7.30594 6.44318 7.52716 6.79243C7.74839 7.14168 8.06402 7.42111 8.4375 7.59838V7.60651L7.29401 8.09631C6.98466 8.23006 6.71017 8.43308 6.4917 8.6897C6.27322 8.94632 6.11661 9.24969 6.03393 9.57642L5.7135 10.8566C5.69334 10.9387 5.68993 11.024 5.70345 11.1074C5.71699 11.1908 5.74718 11.2707 5.79225 11.3422C5.8313 11.4022 5.88044 11.455 5.9375 11.4983V13.125H2.1875V11.25H5V10.625H2.1875V7.5C2.18723 7.25144 2.08837 7.01314 1.91261 6.83739C1.73686 6.66163 1.49856 6.56277 1.25 6.5625H0.625V7.1875H1.25C1.33286 7.18756 1.41232 7.2205 1.47091 7.27909C1.5295 7.33768 1.56244 7.41714 1.5625 7.5V13.125H0.625V13.75H17.5C17.5829 13.7501 17.6623 13.783 17.7209 13.8416C17.7795 13.9002 17.8124 13.9796 17.8125 14.0625V15.3125C17.8124 15.3954 17.7795 15.4748 17.7209 15.5334C17.6623 15.592 17.5829 15.6249 17.5 15.625H0.625V16.25H10.3125V17.8125C10.3124 17.8954 10.2795 17.9748 10.2209 18.0334C10.1623 18.092 10.0829 18.1249 10 18.125H0.625V18.75H10C10.2486 18.7497 10.4869 18.6509 10.6626 18.4751C10.8384 18.2994 10.9372 18.0611 10.9375 17.8125V16.25H16.5625V19.375H17.1875V16.25H17.5C17.7486 16.2497 17.9869 16.1509 18.1626 15.9751C18.3384 15.7994 18.4372 15.5611 18.4375 15.3125V14.0625C18.4372 13.8139 18.3384 13.5756 18.1626 13.3999C17.9869 13.2241 17.7486 13.1253 17.5 13.125ZM9.0625 7.78753C9.2695 7.82082 9.4805 7.82082 9.6875 7.78753V8.125C9.6875 8.20788 9.65458 8.28737 9.59597 8.34597C9.53737 8.40458 9.45788 8.4375 9.375 8.4375C9.29212 8.4375 9.21263 8.40458 9.15403 8.34597C9.09542 8.28737 9.0625 8.20788 9.0625 8.125V7.78753ZM9.375 9.0625C9.59639 9.06197 9.81045 8.98305 9.9792 8.83974C10.148 8.69642 10.2605 8.49798 10.2969 8.27959L10.9375 8.55413V9.6875H7.8125V8.55402L8.45312 8.27955C8.4895 8.49794 8.60204 8.6964 8.77079 8.83972C8.93955 8.98304 9.1536 9.06196 9.375 9.0625ZM7.8125 10.3125H10.9375V13.125H7.8125V10.3125ZM11.5625 11.8187L12.1875 11.6937V13.125H11.5625V11.8187ZM12.11 9.72838L12.4298 11.008L11.5625 11.1814V8.88433C11.8326 9.09802 12.025 9.39461 12.11 9.72839V9.72838ZM9.0625 2.5C9.06256 2.41714 9.0955 2.33768 9.15409 2.27909C9.21268 2.2205 9.29214 2.18756 9.375 2.1875H10.9375V3.4375H9.0625V2.5ZM7.8125 2.8125H8.125C8.20786 2.81256 8.28732 2.8455 8.34591 2.90409C8.4045 2.96268 8.43744 3.04214 8.4375 3.125V3.4375H7.8125V2.8125ZM7.8125 5.625V4.0625H10.9375V5.625C10.9375 6.0394 10.7729 6.43683 10.4799 6.72985C10.1868 7.02288 9.7894 7.1875 9.375 7.1875C8.9606 7.1875 8.56317 7.02288 8.27015 6.72985C7.97712 6.43683 7.8125 6.0394 7.8125 5.625ZM6.64 9.72809C6.72505 9.39439 6.91742 9.0979 7.1875 8.88426V11.1814L6.31988 11.008L6.64 9.72809ZM6.5625 11.6937L7.1875 11.8187V13.125H6.5625V11.6937Z" fill="#52C6FE"/>
<path d="M2.8125 16.875H2.1875V17.5H2.8125V16.875Z" fill="#52C6FE"/>
<path d="M6.25 16.875H3.4375V17.5H6.25V16.875Z" fill="#52C6FE"/>
<path d="M7.5 16.875H6.875V17.5H7.5V16.875Z" fill="#52C6FE"/>
</svg>
