<svg width="20" height="20" viewBox="0 0 20 20" fill="none" xmlns="http://www.w3.org/2000/svg">
<g clip-path="url(#clip0)">
<path d="M10.8398 15.993C10.7139 15.647 10.382 15.4146 10.0139 15.4146C9.91141 15.4146 9.81031 15.4324 9.71336 15.4677C9.25801 15.6335 9.02243 16.1388 9.18809 16.5942C9.31403 16.9402 9.64598 17.1726 10.014 17.1726C10.1165 17.1726 10.2176 17.1547 10.3145 17.1195C10.7699 16.9537 11.0055 16.4484 10.8398 15.993ZM10.1142 16.5689C10.0817 16.5807 10.048 16.5867 10.0141 16.5867C9.89133 16.5867 9.78067 16.5092 9.73867 16.3938C9.68344 16.242 9.76199 16.0735 9.91375 16.0183C9.94621 16.0065 9.97992 16.0005 10.0139 16.0005C10.1366 16.0005 10.2472 16.078 10.2892 16.1934C10.3445 16.3452 10.266 16.5136 10.1142 16.5689Z" fill="#52C6FE"/>
<path d="M19.9822 13.2915L19.5814 12.1903C19.5539 12.115 19.4988 12.0578 19.4317 12.0259C19.4311 12.0257 19.4305 12.0253 19.4299 12.025C19.4255 12.023 19.421 12.0214 19.4165 12.0195C19.4123 12.0178 19.4081 12.0159 19.4038 12.0143C19.4028 12.0139 19.4017 12.0137 19.4007 12.0134C19.3396 11.9925 19.2713 11.9914 19.2059 12.0152L18.2479 12.3636L16.21 6.7641C16.21 6.76394 16.2099 6.76382 16.2098 6.76371L15.4085 4.56184C15.3663 4.44661 15.2558 4.36923 15.1331 4.36923C15.0991 4.36923 15.0651 4.37509 15.0331 4.38681C14.8812 4.44188 14.8026 4.61063 14.8577 4.76219L15.5593 6.68921L11.797 8.0585C11.797 8.0585 11.7969 8.0585 11.7968 8.05854C11.7967 8.05858 11.7966 8.05866 11.7965 8.05866L9.50287 8.89342L7.96632 4.67255L9.98533 3.93778L10.4195 5.13051C10.4613 5.24575 10.5719 5.32352 10.6945 5.32352C10.7289 5.32352 10.7625 5.31766 10.7949 5.30551L12.2632 4.77114C12.3367 4.74458 12.3953 4.69067 12.4285 4.61997C12.453 4.56739 12.461 4.51009 12.4529 4.45411C12.4528 4.4538 12.4528 4.45348 12.4528 4.45321C12.4516 4.44559 12.45 4.43794 12.4482 4.4304C12.4477 4.42825 12.4475 4.42622 12.447 4.42407C12.4446 4.41458 12.4417 4.40516 12.4383 4.39579L12.0042 3.20302L14.0228 2.46838L14.4569 3.66099C14.4991 3.77622 14.6097 3.85396 14.7323 3.85396C14.7663 3.85396 14.8003 3.8481 14.8327 3.83599C14.9843 3.78091 15.0628 3.61251 15.0077 3.4606L14.4734 1.99229C14.4364 1.89147 14.3472 1.81963 14.2433 1.80323C14.2284 1.80088 14.2133 1.79967 14.198 1.79967C14.164 1.79967 14.13 1.80553 14.098 1.81725L11.5299 2.75205C11.5294 2.75221 11.529 2.75224 11.5285 2.7524C11.5277 2.75267 11.527 2.75307 11.5263 2.75334L10.0628 3.28607C10.0619 3.28638 10.0611 3.28646 10.0602 3.28677C10.0588 3.28732 10.0574 3.28802 10.056 3.28857L7.49078 4.22228C7.41734 4.24884 7.35875 4.30274 7.32554 4.37345C7.29234 4.44454 7.28882 4.52419 7.31578 4.59766L9.05241 9.36932L10.7224 13.958C10.5107 13.8934 10.2884 13.857 10.0608 13.8526L5.82996 2.22838C5.55372 1.46944 4.71153 1.07675 3.95252 1.35292C3.9524 1.35296 3.95228 1.35303 3.95216 1.35307L0.193475 2.70869C0.193436 2.70873 0.193358 2.70873 0.19328 2.70877C0.193084 2.70885 0.192889 2.70889 0.192655 2.70896C0.185897 2.71142 0.179491 2.71435 0.173045 2.71725C0.170585 2.71834 0.168006 2.71924 0.165585 2.72041C0.159256 2.72342 0.153241 2.72693 0.147225 2.73037C0.144764 2.73178 0.142147 2.73299 0.139725 2.73451C0.133944 2.73803 0.128554 2.74193 0.123085 2.7458C0.120663 2.74752 0.118085 2.74908 0.115741 2.75084C0.110663 2.75471 0.105936 2.75889 0.101132 2.76307C0.0987099 2.76521 0.0960928 2.76713 0.093749 2.76932C0.0892178 2.77346 0.0850772 2.77803 0.0808585 2.78244C0.0785538 2.7849 0.0760929 2.78713 0.0738663 2.78963C0.069882 2.79412 0.0662492 2.79892 0.0625383 2.80365C0.0604289 2.80631 0.0581243 2.80889 0.0561321 2.81166C0.0527727 2.81627 0.049804 2.82111 0.0467181 2.82592C0.0447259 2.82904 0.0425384 2.83201 0.0406634 2.83517C0.0378509 2.83994 0.0354291 2.84494 0.03289 2.84986C0.0311322 2.85326 0.0291791 2.85658 0.0275385 2.86006C0.0252729 2.8649 0.023437 2.8699 0.0214057 2.87486C0.0198823 2.87865 0.0181635 2.88224 0.0168354 2.88607C0.0151167 2.89092 0.0137886 2.89592 0.0123433 2.90084C0.0111323 2.9049 0.0097261 2.90892 0.00867142 2.91306C0.00746049 2.91791 0.00664018 2.92291 0.00566362 2.92783C0.00480425 2.93213 0.00374957 2.93642 0.00308551 2.94076C0.00230427 2.94576 0.00203083 2.95084 0.00152302 2.95588C0.00109334 2.96025 0.000429279 2.96463 0.000194906 2.96904C-7.853e-05 2.9742 0.000116781 2.97935 0.000116781 2.98451C0.000116781 2.98892 -0.000117592 2.99334 7.7719e-05 2.99775C0.000312093 3.00299 0.00105428 3.00826 0.00156209 3.01349C0.00199177 3.01783 0.00222614 3.0222 0.00285114 3.02658C0.00363239 3.03177 0.00488238 3.03697 0.00593706 3.04217C0.00683549 3.04658 0.00749955 3.05103 0.00859329 3.05545C0.00988235 3.06064 0.0117183 3.06576 0.0133198 3.07091C0.0146479 3.07517 0.0157026 3.07951 0.0172261 3.08377C0.0172651 3.08384 0.0173042 3.08396 0.0173432 3.08404C0.0173823 3.08424 0.0174214 3.08439 0.0174995 3.08459L0.418317 4.18575C0.421325 4.19403 0.425466 4.20157 0.429099 4.20942C0.43195 4.21552 0.434255 4.222 0.437497 4.22782C0.442067 4.23606 0.447575 4.24341 0.452848 4.2511C0.456169 4.25591 0.458981 4.26118 0.462575 4.26575C0.468864 4.27384 0.476051 4.28102 0.483083 4.28829C0.486364 4.29169 0.489255 4.29556 0.492692 4.2988C0.500622 4.30626 0.509333 4.31274 0.517965 4.31923C0.52109 4.32161 0.523903 4.32438 0.527106 4.32657C0.536442 4.33302 0.546442 4.33845 0.556442 4.34372C0.55941 4.34528 0.562145 4.34731 0.565153 4.3488C0.575387 4.3538 0.586129 4.35767 0.596871 4.36142C0.599996 4.36251 0.602926 4.36407 0.60609 4.36509C0.617105 4.36856 0.628433 4.37079 0.63984 4.37298C0.642965 4.37356 0.646011 4.37466 0.649175 4.37513C0.663785 4.37743 0.678667 4.37856 0.693667 4.37856C0.701949 4.37856 0.710269 4.37817 0.718628 4.37751C0.720347 4.37735 0.722027 4.377 0.723745 4.37684C0.730386 4.37614 0.736987 4.3754 0.743628 4.37427C0.746675 4.37372 0.749722 4.3729 0.752769 4.37227C0.758042 4.37118 0.763315 4.37016 0.76855 4.36876C0.774136 4.36731 0.779643 4.3654 0.78519 4.36356C0.787807 4.36274 0.790425 4.36204 0.793003 4.3611L0.793315 4.36099C0.793471 4.36095 0.793628 4.36087 0.793784 4.36083C0.793901 4.36079 0.794018 4.36071 0.794136 4.36067L4.27798 3.10412L8.40932 14.4546C7.67238 15.0992 7.36546 16.1548 7.71995 17.1286C8.0698 18.0898 8.99178 18.7356 10.0142 18.7356C10.2987 18.7356 10.5795 18.6859 10.849 18.5878C11.4618 18.3647 11.951 17.9165 12.2266 17.3255C12.3731 17.0113 12.4492 16.6769 12.4555 16.3404L19.8071 13.667C19.8071 13.667 19.8071 13.667 19.8071 13.667H19.8072C19.8091 13.6663 19.8109 13.6653 19.8129 13.6646C19.8203 13.6617 19.8277 13.6588 19.8348 13.6553C19.8378 13.6539 19.8405 13.6521 19.8435 13.6506C19.8493 13.6476 19.8551 13.6446 19.8606 13.6413C19.8637 13.6393 19.8666 13.6371 19.8696 13.6351C19.8746 13.6317 19.8798 13.6285 19.8845 13.6249C19.8861 13.6237 19.8874 13.6224 19.8889 13.6212C19.8949 13.6164 19.9009 13.6116 19.9064 13.6064C19.9074 13.6054 19.9082 13.6044 19.9092 13.6035C19.9151 13.5978 19.9209 13.5921 19.9263 13.586C19.9274 13.5848 19.9283 13.5834 19.9294 13.5821C19.9345 13.5762 19.9394 13.5702 19.944 13.5639C19.9445 13.5632 19.9449 13.5625 19.9454 13.5618C19.9503 13.5548 19.9551 13.5477 19.9594 13.5403C19.9602 13.539 19.9608 13.5375 19.9616 13.5362C19.9655 13.5294 19.9692 13.5225 19.9725 13.5155C19.9738 13.5127 19.9748 13.5098 19.976 13.5069C19.9785 13.5012 19.981 13.4954 19.9832 13.4894C19.9846 13.4853 19.9857 13.4811 19.9869 13.477C19.9884 13.4722 19.9901 13.4674 19.9913 13.4625C19.9931 13.4553 19.9944 13.448 19.9957 13.4406C19.996 13.4387 19.9965 13.4368 19.9968 13.4349C20.0038 13.3882 19.9995 13.339 19.9822 13.2915ZM11.4537 3.40341L11.7875 4.32099L10.8699 4.65497L10.5359 3.73743L11.4537 3.40341ZM13.1904 8.17503L13.5245 9.09252L12.6065 9.42658L12.2726 8.50905L13.1904 8.17503ZM9.70342 9.44404L11.7221 8.7094L12.1563 9.90212C12.1981 10.0174 12.3087 10.0951 12.4317 10.0951C12.4657 10.0951 12.4993 10.0888 12.5317 10.0771L14 9.54271C14.152 9.48764 14.2305 9.31928 14.175 9.16732L13.7409 7.97468L15.7599 7.23988L17.6976 12.5636L11.8523 14.6892C11.7425 14.5639 11.6209 14.45 11.4888 14.3499L9.70342 9.44404ZM4.72876 2.62912C4.72704 2.62443 4.72489 2.62002 4.72298 2.61541C4.72107 2.61092 4.71935 2.60627 4.71724 2.60186C4.71532 2.59783 4.71306 2.59416 4.71099 2.59029C4.70841 2.58549 4.70595 2.58057 4.70314 2.57596C4.70118 2.57279 4.69896 2.5699 4.69689 2.56682C4.69357 2.56182 4.69036 2.55674 4.68673 2.55201C4.68485 2.54951 4.68271 2.54729 4.68075 2.54482C4.67669 2.53979 4.67267 2.53475 4.66825 2.53002C4.6665 2.52811 4.6645 2.52639 4.66267 2.52451C4.65782 2.51959 4.65302 2.51467 4.64786 2.5101C4.64638 2.50881 4.64478 2.50768 4.64329 2.50643C4.63759 2.50154 4.63181 2.49674 4.62575 2.49236C4.62489 2.49174 4.62396 2.49127 4.6231 2.49061C4.6163 2.48576 4.60935 2.48115 4.60216 2.4769C4.60161 2.47658 4.60103 2.47631 4.60048 2.47604C4.56048 2.45279 4.51517 2.43908 4.46829 2.43662C4.46786 2.43662 4.46747 2.43666 4.46704 2.43662C4.45798 2.43619 4.44888 2.43615 4.4397 2.43658C4.43802 2.43666 4.43634 2.43697 4.43466 2.43709C4.42677 2.4376 4.41888 2.43822 4.41099 2.4394C4.4072 2.43998 4.40345 2.44092 4.39966 2.44166C4.39388 2.44272 4.38806 2.44369 4.38228 2.44514C4.37572 2.44678 4.36919 2.449 4.36267 2.45107C4.35978 2.45201 4.35685 2.45272 4.35396 2.45373L4.35357 2.45389C4.35345 2.45393 4.35329 2.45397 4.35314 2.454C4.35302 2.45404 4.3529 2.45412 4.35279 2.45416L0.86894 3.71072L0.668511 3.16009L4.15193 1.9037C4.15201 1.90366 4.15205 1.90362 4.15212 1.90362C4.15232 1.90354 4.15251 1.9035 4.15275 1.90342C4.60821 1.73768 5.11348 1.9733 5.27923 2.42873L9.46022 13.916C9.3653 13.9382 9.27135 13.9658 9.17881 13.9995C9.08557 14.0334 8.99612 14.0731 8.90971 14.1168L4.72876 2.62912ZM11.6955 17.0777C11.4861 17.5269 11.1143 17.8676 10.6486 18.0371C10.4435 18.1118 10.23 18.1496 10.0142 18.1496C9.23709 18.1496 8.53636 17.6588 8.2705 16.9282C7.92058 15.9669 8.41804 14.9 9.3794 14.5501C9.58447 14.4754 9.79791 14.4376 10.0138 14.4376C10.7908 14.4376 11.4916 14.9284 11.7575 15.659C11.927 16.1247 11.905 16.6286 11.6955 17.0777ZM12.3914 15.7402C12.3691 15.6455 12.3418 15.5515 12.3081 15.4587C12.2743 15.3659 12.235 15.2762 12.1911 15.1895L19.1309 12.6659L19.3314 13.2165L12.3914 15.7402Z" fill="#52C6FE"/>
</g>
<defs>
<clipPath id="clip0">
<rect width="20" height="20" fill="white"/>
</clipPath>
</defs>
</svg>
