<svg width="20" height="20" viewBox="0 0 20 20" fill="none" xmlns="http://www.w3.org/2000/svg">
<path d="M12.2276 7.46051V6.49508C12.2249 5.9071 11.9894 5.34414 11.5726 4.92934C11.1559 4.51454 10.5918 4.28168 10.0038 4.28168C9.41584 4.28168 8.85178 4.51454 8.43504 4.92934C8.01829 5.34414 7.78278 5.9071 7.78003 6.49508V7.46051C7.78278 8.0485 8.01829 8.61146 8.43504 9.02626C8.85178 9.44105 9.41584 9.67392 10.0038 9.67392C10.5918 9.67392 11.1559 9.44105 11.5726 9.02626C11.9894 8.61146 12.2249 8.0485 12.2276 7.46051ZM8.36597 7.46051V6.49508C8.36833 6.06225 8.54193 5.64794 8.84884 5.34271C9.15574 5.03747 9.57099 4.86614 10.0038 4.86614C10.4367 4.86614 10.8519 5.03747 11.1588 5.34271C11.4657 5.64794 11.6393 6.06225 11.6417 6.49508V7.46051C11.6393 7.89335 11.4657 8.30766 11.1588 8.61289C10.8519 8.91812 10.4367 9.08946 10.0038 9.08946C9.57099 9.08946 9.15574 8.91812 8.84884 8.61289C8.54193 8.30766 8.36833 7.89335 8.36597 7.46051V7.46051Z" fill="#52C6FE"/>
<path d="M6.41934 15.7183H13.5884C13.6661 15.7183 13.7406 15.6874 13.7955 15.6325C13.8505 15.5776 13.8813 15.503 13.8813 15.4253V14.7529H18.7891C18.8668 14.7529 18.9413 14.722 18.9962 14.6671C19.0512 14.6121 19.082 14.5376 19.082 14.4599V12.5583C19.0817 12.0004 18.869 11.4635 18.4871 11.0566C18.1052 10.6498 17.5828 10.4037 17.026 10.3681C16.8697 10.3566 16.7894 10.4556 16.7243 10.535C16.5947 10.6934 16.4306 10.8201 16.2446 10.9054C16.0586 10.9908 15.8556 11.0325 15.651 11.0275C15.4464 11.0225 15.2457 10.9709 15.0641 10.8766C14.8825 10.7822 14.7248 10.6477 14.6031 10.4832C14.5751 10.4453 14.5384 10.4148 14.4961 10.3941C14.4539 10.3734 14.4072 10.3632 14.3602 10.3644C13.9796 10.3729 13.6079 10.4814 13.2825 10.6788C13.0676 10.4289 12.8048 10.2247 12.5095 10.0783C12.2143 9.93187 11.8927 9.84618 11.5637 9.82631C11.4124 9.82016 11.3358 9.91205 11.2616 10.0021C11.1095 10.1879 10.917 10.3366 10.6988 10.4368C10.4805 10.537 10.2423 10.586 10.0022 10.5801C9.76213 10.5743 9.52656 10.5137 9.31346 10.403C9.10035 10.2923 8.91533 10.1344 8.77251 9.9413C8.74459 9.9034 8.70791 9.8728 8.66562 9.85213C8.62332 9.83145 8.57665 9.8213 8.52959 9.82255C7.8871 9.83741 7.27613 10.1039 6.82817 10.5647C6.79116 10.6026 6.75606 10.6418 6.72183 10.6816C6.41931 10.4974 6.07645 10.3898 5.72295 10.368C5.56724 10.3565 5.48633 10.4555 5.42124 10.5349C5.29163 10.6933 5.12758 10.82 4.94159 10.9053C4.7556 10.9907 4.55258 11.0324 4.34801 11.0274C4.14343 11.0224 3.94269 10.9708 3.76109 10.8765C3.57949 10.7821 3.42182 10.6476 3.3001 10.4831C3.27209 10.4453 3.2354 10.4148 3.19312 10.3941C3.15085 10.3734 3.10422 10.3632 3.05718 10.3643C2.48492 10.3789 1.941 10.6164 1.54137 11.0263C1.14175 11.4361 0.918051 11.9859 0.917969 12.5583V14.4599C0.917969 14.5376 0.948835 14.6121 1.00378 14.6671C1.05872 14.722 1.13324 14.7529 1.21094 14.7529H6.12637V15.4253C6.12637 15.503 6.15723 15.5776 6.21218 15.6325C6.26712 15.6874 6.34164 15.7183 6.41934 15.7183V15.7183ZM14.2351 10.9596C14.4157 11.1646 14.6378 11.329 14.8866 11.4418C15.1355 11.5546 15.4054 11.6133 15.6787 11.614C15.9519 11.6147 16.2222 11.5574 16.4716 11.4459C16.7211 11.3344 16.944 11.1712 17.1257 10.9672C17.5067 11.0247 17.8544 11.2168 18.1058 11.5087C18.3573 11.8007 18.4957 12.1731 18.4961 12.5583V14.1669H13.8813V12.2875C13.8817 11.8973 13.7888 11.5128 13.6106 11.1657C13.802 11.0541 14.0148 10.9839 14.2351 10.9596V10.9596ZM8.40332 10.4174C8.60588 10.6519 8.85645 10.8401 9.13808 10.9694C9.4197 11.0987 9.7258 11.166 10.0357 11.1667C10.3456 11.1675 10.652 11.1016 10.9342 10.9737C11.2164 10.8457 11.4679 10.6587 11.6716 10.4251C12.1214 10.4874 12.5336 10.7102 12.8321 11.0524C13.1306 11.3947 13.2952 11.8334 13.2956 12.2875V15.1324H6.7123V12.2875C6.71521 11.8225 6.88921 11.3748 7.2011 11.0299C7.51299 10.685 7.94094 10.4669 8.40332 10.4174V10.4174ZM1.50391 14.1669V12.5583C1.50638 12.1636 1.65289 11.7834 1.91591 11.489C2.17892 11.1947 2.54036 11.0065 2.93232 10.9598C3.11295 11.1648 3.33501 11.329 3.58383 11.4418C3.83266 11.5545 4.10258 11.6132 4.37576 11.6139C4.64894 11.6146 4.91915 11.5573 5.16855 11.4458C5.41795 11.3343 5.64084 11.1712 5.82251 10.9672C6.02423 10.9973 6.21831 11.0658 6.39429 11.1689C6.21765 11.5153 6.12583 11.8987 6.12637 12.2875V14.1669H1.50391Z" fill="#52C6FE"/>
<path d="M17.6345 8.3332V7.48814C17.6345 6.96221 17.4255 6.45782 17.0537 6.08594C16.6818 5.71405 16.1774 5.50513 15.6515 5.50513C15.1255 5.50513 14.6212 5.71405 14.2493 6.08594C13.8774 6.45782 13.6685 6.96221 13.6685 7.48814V8.3332C13.6685 8.85913 13.8774 9.36352 14.2493 9.7354C14.6212 10.1073 15.1255 10.3162 15.6515 10.3162C16.1774 10.3162 16.6818 10.1073 17.0537 9.7354C17.4255 9.36352 17.6345 8.85913 17.6345 8.3332V8.3332ZM14.2544 8.3332V7.48814C14.2544 7.11761 14.4016 6.76226 14.6636 6.50026C14.9256 6.23826 15.2809 6.09106 15.6515 6.09106C16.022 6.09106 16.3773 6.23826 16.6393 6.50026C16.9013 6.76226 17.0485 7.11761 17.0485 7.48814V8.3332C17.0485 8.70373 16.9013 9.05908 16.6393 9.32108C16.3773 9.58308 16.022 9.73027 15.6515 9.73027C15.2809 9.73027 14.9256 9.58308 14.6636 9.32108C14.4016 9.05908 14.2544 8.70373 14.2544 8.3332V8.3332Z" fill="#52C6FE"/>
<path d="M6.33161 8.3332V7.48814C6.33161 7.22772 6.28032 6.96986 6.18066 6.72927C6.081 6.48868 5.93494 6.27008 5.7508 6.08594C5.56666 5.9018 5.34806 5.75573 5.10747 5.65607C4.86688 5.55642 4.60902 5.50513 4.3486 5.50513C4.08819 5.50513 3.83033 5.55642 3.58974 5.65607C3.34915 5.75573 3.13055 5.9018 2.94641 6.08594C2.76227 6.27008 2.6162 6.48868 2.51655 6.72927C2.41689 6.96986 2.3656 7.22772 2.3656 7.48814V8.3332C2.3656 8.59362 2.41689 8.85148 2.51655 9.09207C2.6162 9.33266 2.76227 9.55126 2.94641 9.7354C3.13055 9.91954 3.34915 10.0656 3.58974 10.1653C3.83033 10.2649 4.08819 10.3162 4.3486 10.3162C4.60902 10.3162 4.86688 10.2649 5.10747 10.1653C5.34806 10.0656 5.56666 9.91954 5.7508 9.7354C5.93494 9.55126 6.081 9.33266 6.18066 9.09207C6.28032 8.85148 6.33161 8.59362 6.33161 8.3332V8.3332ZM2.95154 8.3332V7.48814C2.95154 7.11761 3.09873 6.76226 3.36073 6.50026C3.62273 6.23826 3.97808 6.09106 4.3486 6.09106C4.71913 6.09106 5.07448 6.23826 5.33648 6.50026C5.59848 6.76226 5.74567 7.11761 5.74567 7.48814V8.3332C5.74567 8.51667 5.70954 8.69834 5.63933 8.86784C5.56912 9.03734 5.46621 9.19135 5.33648 9.32108C5.20675 9.45081 5.05274 9.55372 4.88324 9.62393C4.71374 9.69414 4.53207 9.73027 4.3486 9.73027C4.16514 9.73027 3.98347 9.69414 3.81397 9.62393C3.64447 9.55372 3.49046 9.45081 3.36073 9.32108C3.231 9.19135 3.12809 9.03734 3.05788 8.86784C2.98767 8.69834 2.95154 8.51667 2.95154 8.3332V8.3332Z" fill="#52C6FE"/>
</svg>
